<svg xmlns="http://www.w3.org/2000/svg" xmlns:ev="http://www.w3.org/2001/xml-events" xmlns:xlink="http://www.w3.org/1999/xlink" width="1092.662" height="410.167" class="st19" color-interpolation-filters="sRGB" viewBox="0 0 819.5 307.625" xml:space="preserve"><style type="text/css">.st1,.st2{fill:#fff;stroke:none;stroke-width:.25}.st2{fill:#e6e6e6}.st3,.st4{fill:#0078d4}.st3{stroke:none;stroke-width:.25}.st4{font-family:Segoe UI Semibold;font-size:1.16666em}.st5{fill:none;stroke:none;stroke-width:.25}.st6{fill:#fff;font-family:Segoe UI Semibold;font-size:1.5em}.st7,.st8{stroke:#0078d4}.st7{marker-end:url(#mrkr13-18);stroke-linecap:butt;stroke-width:2.25}.st8{fill:#0078d4;fill-opacity:1;stroke-opacity:1;stroke-width:.60975609756098}.st9{fill:#4672c4;font-family:Segoe UI;font-size:1.00001em}.st10,.st11{font-size:1em}.st11{font-family:Segoe UI Semibold}.st12{fill:#fff;stroke:#0078d4;stroke-width:.25}.st13{fill:#0078d4;font-family:Segoe UI;font-size:1.16666em}.st14,.st15{stroke:#0078d4}.st14{marker-end:url(#mrkr13-18);marker-start:url(#mrkr13-64);stroke-linecap:butt;stroke-width:2.25}.st15{stroke-linecap:round;stroke-linejoin:round;stroke-width:1}.st16,.st17{fill:#000;font-family:Segoe UI Semibold;font-size:1.16666em}.st17{font-family:Segoe UI;font-size:1.00001em}.st18{fill:#0078d4;stroke:#0078d4;stroke-width:.25}.st19{fill:none;fill-rule:evenodd;font-size:12px;overflow:visible;stroke-linecap:square;stroke-miterlimit:3}</style><defs id="Markers"><g id="lend13"><path d="M 3 1 L 0 0 L 3 -1 L 3 1" style="stroke:none"/></g><marker id="mrkr13-18" class="st8" markerUnits="strokeWidth" orient="auto" overflow="visible" refX="-4.92"><use transform="scale(-1.64,-1.64)" xlink:href="#lend13"/></marker><marker id="mrkr13-64" class="st8" markerUnits="strokeWidth" orient="auto" overflow="visible" refX="4.76"><use transform="scale(1.64)" xlink:href="#lend13"/></marker></defs><g><title>Page-1</title><g id="shape1208-1" transform="translate(0.25,-0.25)"><title>Sheet.1208</title><rect width="819" height="307.125" x="0" y=".5" class="st1"/></g><g id="shape1091-3" transform="translate(310.342,-16.8095)"><title>Rectangle.1045</title><rect width="306" height="243.804" x="0" y="63.821" class="st2"/></g><g id="shape1092-5" transform="translate(310.284,-255.892)"><title>Rectangle.1046</title><rect width="306" height="34.721" x="0" y="272.904" class="st3"/></g><g id="shape1093-7" transform="translate(327.517,-36.8095)"><title>Rectangle.1047</title><desc>Microsoft Defender for Endpoint</desc><rect width="274.499" height="140.957" x="0" y="166.668" class="st1"/><text x="33.54" y="189.27" class="st4">Microsoft Defender for Endpoint</text></g><g id="shape1094-10" transform="translate(310.338,-255.892)"><title>Rectangle.1048</title><desc>Microsoft Defender XDR</desc><rect width="306" height="34.721" x="0" y="272.904" class="st5"/><text x="53.3" y="295.66" class="st6">Microsoft Defender XDR</text></g><g id="shape1098-13" transform="translate(157.142,129.858) rotate(-90)"><title>Sheet.1098</title><path d="M0 307.62 L18.93 307.62" class="st7"/></g><g id="shape8-19" transform="translate(368.016,-110.614)"><title>Cloud shield.197</title><rect width="25.732" height="28.431" x="0" y="279.194" class="st5"/><switch><svg width="25.732" height="26.27" x="0" y="281.355" clip="rect(-2.16055 0 0 0)" color-interpolation-filters="sRGB" enable-background="new" overflow="hidden" preserveAspectRatio="none" viewBox="0 -38.016 43.008 34.016"><defs><g id="mfid238"><path d="M104,-92 C102,-97 99,-101 96,-106 C93,-109 89,-111 85,-113 C80,-114 76,-115 71,-115 C68,-115 65,-115 62,-114 C59,-113 56,-112 53,-111 C50,-109 48,-107 46,-105 C43,-103 41,-100 39,-98 C37,-98 35,-98 33,-98 C29,-99 25,-98 20,-96 C16,-94 13,-92 10,-89 C7,-86 4,-82 3,-78 C-1,-70 -1,-60 3,-52 C4,-48 7,-44 10,-41 C13,-38 16,-36 20,-34 C24,-33 56,-33 60,-33 C53,-43 49,-55 50,-67 C50,-69 50,-85 50,-85 C81,-83 81,-104 104,-92 Z" transform="matrix(0.33333, 0, 0, 0.33333, 0, 0)"/></g></defs><g><g fill="#c2c2c2" stroke="none" stroke-width="3.761" transform="matrix(0.33333, 0, 0, 0.33333, 0, 0)"><use stroke="none" transform="matrix(3, -0, -0, 3, -0, 0)" xlink:href="#mfid238"/></g></g><defs><g id="mfid239"><path d="M92,-14 C89,-15 87,-17 84,-19 C81,-21 79,-23 76,-25 C74,-27 71,-30 69,-32 C67,-34 65,-37 63,-40 C62,-43 61,-46 60,-49 C59,-52 58,-56 58,-59 C58,-77 58,-77 58,-77 C61,-77 61,-77 61,-77 C64,-77 68,-78 71,-79 C75,-80 78,-81 81,-83 C83,-84 85,-85 87,-86 C91,-87 95,-87 100,-86 C102,-85 104,-84 106,-83 C108,-81 112,-80 115,-79 C118,-78 122,-77 126,-77 C128,-77 128,-77 128,-77 C128,-60 128,-60 128,-60 C128,-56 127,-53 127,-49 C126,-46 124,-43 123,-40 C121,-37 119,-35 117,-32 C115,-30 113,-27 110,-25 C108,-23 105,-21 102,-19 C100,-17 97,-15 94,-14 C93,-13 93,-13 93,-13 Z" transform="matrix(0.33333, 0, 0, 0.33333, 0, 0)"/></g></defs><g><g fill="#2f2f2f" stroke="none" stroke-width="3.761" transform="matrix(0.33333, 0, 0, 0.33333, 0, 0)"><use stroke="none" transform="matrix(3, -0, -0, 3, -0, 0)" xlink:href="#mfid239"/></g><g fill="#d83b01" stroke="none" stroke-width="3.761"><path d="M91,-30 L96,-35 Z" transform="matrix(0.33333, 0, 0, 0.33333, 0, 0)"/></g><g fill="none" stroke="none" stroke-width="3.761"><path fill="none" d="M91,-30 L96,-35" transform="matrix(0.33333, 0, 0, 0.33333, 0, 0)"/></g></g></svg></switch><rect width="25.732" height="28.431" x="0" y="279.194" class="st5"/></g><g id="shape1105-22" transform="translate(67.6401,-10.7071)"><title>Sheet.1105</title><desc>Organization devices</desc><rect width="131.513" height="27.153" x="0" y="280.472" class="st5"/><text x="10.45" y="297.65" class="st9">Organization devices</text></g><g id="shape1106-25" transform="translate(13.2838,-101.64)"><title>Rectangle.1072</title><rect width="240.225" height="189" x="0" y="118.625" class="st2"/></g><g id="shape1107-27" transform="translate(19.2431,-251.75)"><title>Rectangle.1073</title><desc>Microsoft Intune</desc><rect width="228.307" height="34.721" x="0" y="272.904" class="st5"/><text x="61.19" y="294.46" class="st4">Microsoft Intune</text></g><g id="shape1108-30" transform="translate(13.2838,-110.64)"><title>Sheet.1108</title><desc>App Protection Policies (APP) Mobile device management (MDM) ...</desc><rect width="240.225" height="111.312" x="0" y="196.313" class="st5"/><text x="43.05" y="211.11" class="st9">App Protection Policies (APP)<tspan x="26.12" class="st10" dy="1.7em">Mobile device management (MDM)</tspan><tspan x="9.95" class="st10" dy="1.7em">Configuration profiles to manage settings</tspan><tspan x="6.15" class="st11" dy="1.7em">Integration with Defender for Endpoint to </tspan><tspan x="15.87" class="st11" dy="1.2em">monitor device risk and compliance to </tspan><tspan x="72.43" class="st11" dy="1.2em">security baselines</tspan></text></g><g id="shape9-38" transform="translate(111.426,-37.8602)"><title>Devices.1070</title><rect width="43.94" height="36.78" x="0" y="270.845" class="st5"/><switch><svg width="43.94" height="36.78" x="0" y="270.845" color-interpolation-filters="sRGB" enable-background="new" preserveAspectRatio="none" viewBox="0 -39.008 43.008 36"><defs><clipPath id="mfid240"><rect id="mfid241" width="43.008" height="36" x="0" y="-39.008"/></clipPath></defs><g clip-path="url(#mfid240)"><defs><g id="mfid242"><path d="M125,-118 C87,-118 87,-118 87,-118 C85,-118 84,-117 84,-115 C84,-115 84,-115 84,-115 C84,-44 84,-44 84,-44 C84,-42 85,-41 87,-41 C87,-41 87,-41 87,-41 C125,-41 125,-41 125,-41 C127,-41 128,-42 128,-44 C128,-44 128,-44 128,-44 C128,-115 128,-115 128,-115 C128,-117 127,-118 125,-118 Z M112,-47 C101,-47 101,-47 101,-47 C101,-52 101,-52 101,-52 C112,-52 112,-52 112,-52 Z" transform="matrix(0.33333, 0, 0, 0.33333, 0, 0)"/></g></defs><g><g fill="#939393" stroke="none" stroke-width="2.202" transform="matrix(0.33333, 0, 0, 0.33333, 0, 0)"><use stroke="none" transform="matrix(3, -0, -0, 3, -0, 0)" xlink:href="#mfid242"/></g></g><defs><g id="mfid243"><path d="M76,-44 C76,-90 76,-90 76,-90 C4,-90 4,-90 4,-90 C2,-90 0,-88 0,-86 C0,-14 0,-14 0,-14 C0,-12 2,-10 4,-10 C108,-10 108,-10 108,-10 C110,-10 112,-12 112,-14 C112,-33 112,-33 112,-33 C87,-33 87,-33 87,-33 C81,-33 76,-38 76,-44 Z M64,-18 C48,-18 48,-18 48,-18 C48,-26 48,-26 48,-26 C64,-26 64,-26 64,-26 Z" transform="matrix(0.33333, 0, 0, 0.33333, 0, 0)"/></g></defs><g><g fill="#c2c2c2" stroke="none" stroke-width="2.202" transform="matrix(0.33333, 0, 0, 0.33333, 0, 0)"><use stroke="none" transform="matrix(3, -0, -0, 3, -0, 0)" xlink:href="#mfid243"/></g></g></g></svg></switch><rect width="43.94" height="36.78" x="0" y="270.845" class="st5"/></g><g id="shape1109-41" transform="translate(120.396,-228.497)"><title>Settings blue</title><path d="M22.68 294.84 C22.68 294.76 22.68 294.69 22.68 294.61 C22.68 294.53 22.68 294.46 22.68 294.38 A2.12875 2.12875 0 0 1 22.68 294.15 L26 292.1 L23.97 287.22 L20.16 288.08 C19.96 287.86 19.74 287.65 19.52 287.44 L20.39 283.66 L15.51 281.62 L13.45 284.93 L12.53 284.93 L10.47 281.62 L5.6 283.66 L6.45 287.44 C6.23 287.65 6.02 287.86 5.82 288.08 L2.03 287.21 L0 292.09 L3.31 294.15 C3.31 294.22 3.31 294.3 3.31 294.37 A2.21 2.21 -180 0 0 3.31 294.6 A2.28313 2.28313 -180 0 0 3.31 294.84 C3.31 294.91 3.31 294.99 3.31 295.06 L0 297.13 L2.03 302 L5.82 301.12 C6.02 301.35 6.23 301.56 6.45 301.77 L5.59 305.57 L10.47 307.6 L12.52 304.29 L13.44 304.29 L15.5 307.62 L20.38 305.59 L19.5 301.78 A7.97063 7.97063 -180 0 0 20.14 301.14 L23.93 302.01 L25.96 297.14 L22.67 295.07 A2.12875 2.12875 0 0 1 22.68 294.84 ZM17.4 296.47 A4.745 4.745 0 0 1 14.85 299.02 A4.63125 4.63125 0 0 1 12.98 299.4 A4.68813 4.68813 0 0 1 11.12 299.02 A4.81813 4.81813 0 0 1 8.56 296.47 A4.62312 4.62312 0 0 1 8.19 294.6 A4.68 4.68 0 0 1 8.56 292.73 A4.875 4.875 0 0 1 11.12 290.18 A4.68 4.68 0 0 1 12.98 289.81 A4.62312 4.62312 0 0 1 14.85 290.18 A4.81812 4.81812 0 0 1 17.4 292.73 A4.68812 4.68812 0 0 1 17.79 294.6 A4.63125 4.63125 0 0 1 17.4 296.48 L17.4 296.47 Z" class="st3"/></g><g id="shape1110-43" transform="translate(-174.229,232.985) rotate(-90)"><title>Sheet.1110</title><path d="M0 307.62 L15.93 307.62" class="st7"/></g><g id="shape1113-48" transform="translate(381.381,-114.354)"><title>Sheet.1113</title><desc>Threat &amp; Vulnerability Management Attack surface reduction En...</desc><rect width="185.93" height="24.91" x="0" y="282.715" class="st5"/><text x="34.96" y="297.51" class="st9">Threat &amp; Vulnerability <tspan x="57.67" class="st10" dy="1.2em">Management</tspan><tspan x="28.75" class="st10" dy="1.7em">Attack surface reduction</tspan><tspan x="5.26" class="st10" dy="1.7em">Endpoint detection and response</tspan><tspan x="13.71" class="st10" dy="1.7em">Investigation and remediation</tspan></text></g><g id="shape1119-55" transform="translate(324.551,-203.107)"><title>Sheet.1119</title><desc>Shared signals</desc><rect width="274.499" height="27.153" x="0" y="280.472" class="st12" rx="13.576" ry="13.576"/><text x="92.9" y="298.25" class="st13">Shared signals</text></g><g id="shape1120-58" transform="translate(166.284,-56.6402)"><title>Sheet.1120</title><path d="M10.71 307.62 L11.07 307.62 L177.93 307.62" class="st14"/></g><g id="shape1123-66" transform="translate(978.436,72.9607) rotate(90)"><title>Sheet.1123</title><path d="M0 307.62 L35.79 307.62" class="st15"/></g><g id="shape1124-69" transform="translate(660.811,-269.89)"><title>Sheet.1124</title><desc>In this article:</desc><rect width="155.25" height="20" x="0" y="287.625" class="st5"/><text x="4" y="302.13" class="st16">In this article:</text></g><g id="shape1126-72" transform="translate(682.659,-234.64)"><title>Sheet.1126</title><desc>Monitor device risk</desc><rect width="121.163" height="20" x="0" y="287.625" class="st5"/><text x="4" y="302.43" class="st17">Monitor device risk</text></g><g id="shape1127-75" transform="translate(660.811,-234.64)"><title>Sheet.1127</title><ellipse cx="10" cy="297.625" class="st18" rx="10" ry="10"/></g><g id="shape1128-77" transform="translate(660.811,-191.557)"><title>Sheet.1128</title><ellipse cx="10" cy="297.625" class="st18" rx="10" ry="10"/></g><g id="shape1129-79" transform="translate(684.571,-197.724)"><title>Sheet.1129</title><desc>Monitor compliance to security baselines</desc><rect width="128.25" height="20" x="0" y="287.625" class="st5"/><text x="4" y="302.43" class="st17">Monitor compliance <tspan x="4" class="st10" dy="1.2em">to security baselines</tspan></text></g></g></svg>