<svg xmlns="http://www.w3.org/2000/svg" xmlns:ev="http://www.w3.org/2001/xml-events" xmlns:xlink="http://www.w3.org/1999/xlink" width="690.666" height="792.588" class="st20" color-interpolation-filters="sRGB" viewBox="0 0 518 594.441" xml:space="preserve"><style type="text/css">.st1{fill:#fff;stroke:none;stroke-width:.25}.st2,.st3{stroke:#0078d4}.st2{marker-end:url(#mrkr13-8);stroke-linecap:butt;stroke-width:2.25}.st3{fill:#0078d4;fill-opacity:1;stroke-opacity:1;stroke-width:.47169811320755}.st4{fill:#e6e6e6;stroke:none;stroke-width:.25}.st5,.st6{fill:#0078d4}.st5{stroke:none;stroke-width:.25}.st6{font-family:Segoe UI Semibold;font-size:1.16666em}.st7{fill:none;stroke:none;stroke-width:.25}.st8,.st9{fill:#fff;font-family:Segoe UI Semibold;font-size:1.33333em}.st9{font-size:1.5em}.st10{fill:#4672c4;font-family:Segoe UI;font-size:1.00001em}.st11{font-size:1em}.st12{fill:#fff;stroke:#c7c8c8;stroke-width:.25}.st13{font-family:Segoe UI Semibold;font-size:1em}.st14{fill:#0078d4;stroke:#fff;stroke-width:.25}.st15{fill:#fff;font-family:Calibri;font-size:1.5em}.st16,.st17{stroke-width:1.5}.st16{fill:none;stroke:#0078d4}.st17{marker-end:url(#mrkr13-73);stroke-dasharray:10.5,7.5}.st17,.st18,.st19{stroke:#0078d4}.st18{fill:#0078d4;fill-opacity:1;stroke-opacity:1;stroke-width:.37313432835821}.st19{marker-end:url(#mrkr13-73);stroke-width:1.5}.st20{fill:none;fill-rule:evenodd;font-size:12px;overflow:visible;stroke-linecap:square;stroke-miterlimit:3}</style><defs id="Markers"><g id="lend13"><path d="M 3 1 L 0 0 L 3 -1 L 3 1" style="stroke:none"/></g><marker id="mrkr13-8" class="st3" markerUnits="strokeWidth" orient="auto" overflow="visible" refX="-6.36"><use transform="scale(-2.12,-2.12)" xlink:href="#lend13"/></marker><marker id="mrkr13-73" class="st18" markerUnits="strokeWidth" orient="auto" overflow="visible" refX="-8.04"><use transform="scale(-2.68,-2.68)" xlink:href="#lend13"/></marker></defs><g><title>Page-1</title><g id="shape1142-1" transform="translate(0.25,-0.25)"><title>Sheet.1142</title><rect width="517.5" height="593.941" x="0" y=".5" class="st1"/></g><g id="shape1087-3" transform="translate(108.232,-559.245)"><title>Sheet.1087</title><path d="M0 594.44 L92.86 594.44" class="st2"/></g><g id="shape1088-9" transform="translate(216.874,-11.5141)"><title>Rectangle.1088</title><rect width="285.71" height="73.261" x="0" y="521.18" class="st4"/></g><g id="shape1089-11" transform="translate(216.874,-79.9233)"><title>Rectangle.1089</title><rect width="285.71" height="34.721" x="0" y="559.719" class="st5"/></g><g id="shape1090-13" transform="translate(235.595,-30.0678)"><title>Rectangle.1090</title><desc>Microsoft Endpoint DLP</desc><rect width="256.298" height="36.153" x="0" y="558.287" class="st1"/><text x="52.5" y="580.89" class="st6">Microsoft Endpoint DLP</text></g><g id="shape1091-16" transform="translate(219.555,-79.9053)"><title>Rectangle.1091</title><desc>Microsoft 365 Compliance</desc><rect width="285.659" height="34.721" x="0" y="559.719" class="st7"/><text x="47.54" y="581.88" class="st8">Microsoft 365 Compliance</text></g><g id="shape1092-19" transform="translate(217.108,-366.645)"><title>Rectangle.1092</title><rect width="285.414" height="213.77" x="0" y="380.67" class="st4"/></g><g id="shape1093-21" transform="translate(216.874,-132.645)"><title>Rectangle.1093</title><rect width="287.959" height="184.739" x="0" y="409.701" class="st4"/></g><g id="shape1094-23" transform="translate(216.819,-312.663)"><title>Rectangle.1094</title><rect width="287.959" height="34.721" x="0" y="559.719" class="st5"/></g><g id="shape1095-25" transform="translate(234.052,-150.622)"><title>Rectangle.1095</title><desc>Microsoft Defender for Endpoint</desc><rect width="252.781" height="148.339" x="0" y="446.102" class="st1"/><text x="22.68" y="468.7" class="st6">Microsoft Defender for Endpoint</text></g><g id="shape1096-28" transform="translate(216.873,-312.663)"><title>Rectangle.1096</title><desc>Microsoft Defender XDR</desc><rect width="287.905" height="34.721" x="0" y="559.719" class="st7"/><text x="44.25" y="582.48" class="st9">Microsoft Defender XDR</text></g><g id="shape9-31" transform="translate(269.019,-231.905)"><title>Cloud shield.9</title><rect width="25.732" height="28.431" x="0" y="566.01" class="st7"/><switch><svg width="25.732" height="26.27" x="0" y="568.171" clip="rect(-2.16055 0 0 0)" color-interpolation-filters="sRGB" enable-background="new" overflow="hidden" preserveAspectRatio="none" viewBox="0 -38.016 43.008 34.016"><defs><g id="mfid244"><path d="M104,-92 C102,-97 99,-101 96,-106 C93,-109 89,-111 85,-113 C80,-114 76,-115 71,-115 C68,-115 65,-115 62,-114 C59,-113 56,-112 53,-111 C50,-109 48,-107 46,-105 C43,-103 41,-100 39,-98 C37,-98 35,-98 33,-98 C29,-99 25,-98 20,-96 C16,-94 13,-92 10,-89 C7,-86 4,-82 3,-78 C-1,-70 -1,-60 3,-52 C4,-48 7,-44 10,-41 C13,-38 16,-36 20,-34 C24,-33 56,-33 60,-33 C53,-43 49,-55 50,-67 C50,-69 50,-85 50,-85 C81,-83 81,-104 104,-92 Z" transform="matrix(0.33333, 0, 0, 0.33333, 0, 0)"/></g></defs><g><g fill="#c2c2c2" stroke="none" stroke-width="3.761" transform="matrix(0.33333, 0, 0, 0.33333, 0, 0)"><use stroke="none" transform="matrix(3, -0, -0, 3, -0, 0)" xlink:href="#mfid244"/></g></g><defs><g id="mfid245"><path d="M92,-14 C89,-15 87,-17 84,-19 C81,-21 79,-23 76,-25 C74,-27 71,-30 69,-32 C67,-34 65,-37 63,-40 C62,-43 61,-46 60,-49 C59,-52 58,-56 58,-59 C58,-77 58,-77 58,-77 C61,-77 61,-77 61,-77 C64,-77 68,-78 71,-79 C75,-80 78,-81 81,-83 C83,-84 85,-85 87,-86 C91,-87 95,-87 100,-86 C102,-85 104,-84 106,-83 C108,-81 112,-80 115,-79 C118,-78 122,-77 126,-77 C128,-77 128,-77 128,-77 C128,-60 128,-60 128,-60 C128,-56 127,-53 127,-49 C126,-46 124,-43 123,-40 C121,-37 119,-35 117,-32 C115,-30 113,-27 110,-25 C108,-23 105,-21 102,-19 C100,-17 97,-15 94,-14 C93,-13 93,-13 93,-13 Z" transform="matrix(0.33333, 0, 0, 0.33333, 0, 0)"/></g></defs><g><g fill="#2f2f2f" stroke="none" stroke-width="3.761" transform="matrix(0.33333, 0, 0, 0.33333, 0, 0)"><use stroke="none" transform="matrix(3, -0, -0, 3, -0, 0)" xlink:href="#mfid245"/></g><g fill="#d83b01" stroke="none" stroke-width="3.761"><path d="M91,-30 L96,-35 Z" transform="matrix(0.33333, 0, 0, 0.33333, 0, 0)"/></g><g fill="none" stroke="none" stroke-width="3.761"><path fill="none" d="M91,-30 L96,-35" transform="matrix(0.33333, 0, 0, 0.33333, 0, 0)"/></g></g></svg></switch><rect width="25.732" height="28.431" x="0" y="566.01" class="st7"/></g><g id="shape1097-34" transform="translate(261.833,-233.895)"><title>Sheet.1097</title><desc>Threat &amp; Vulnerability Management Attack surface reduction En...</desc><rect width="185.93" height="24.91" x="0" y="569.53" class="st7"/><text x="34.96" y="584.33" class="st10">Threat &amp; Vulnerability <tspan x="57.67" class="st11" dy="1.2em">Management</tspan><tspan x="28.75" class="st11" dy="1.7em">Attack surface reduction</tspan><tspan x="5.26" class="st11" dy="1.7em">Endpoint detection and response</tspan><tspan x="13.71" class="st11" dy="1.7em">Investigation and remediation</tspan></text></g><g id="shape1099-41" transform="translate(2.50603,-518.712)"><title>Sheet.1099</title><desc>Organization devices</desc><rect width="131.513" height="27.153" x="0" y="567.288" class="st7"/><text x="10.45" y="584.46" class="st10">Organization devices</text></g><g id="shape10-44" transform="translate(46.2924,-545.865)"><title>Devices.10</title><rect width="43.94" height="36.78" x="0" y="557.661" class="st7"/><switch><svg width="43.94" height="36.78" x="0" y="557.661" color-interpolation-filters="sRGB" enable-background="new" preserveAspectRatio="none" viewBox="0 -39.008 43.008 36"><defs><clipPath id="mfid246"><rect id="mfid247" width="43.008" height="36" x="0" y="-39.008"/></clipPath></defs><g clip-path="url(#mfid246)"><defs><g id="mfid248"><path d="M125,-118 C87,-118 87,-118 87,-118 C85,-118 84,-117 84,-115 C84,-115 84,-115 84,-115 C84,-44 84,-44 84,-44 C84,-42 85,-41 87,-41 C87,-41 87,-41 87,-41 C125,-41 125,-41 125,-41 C127,-41 128,-42 128,-44 C128,-44 128,-44 128,-44 C128,-115 128,-115 128,-115 C128,-117 127,-118 125,-118 Z M112,-47 C101,-47 101,-47 101,-47 C101,-52 101,-52 101,-52 C112,-52 112,-52 112,-52 Z" transform="matrix(0.33333, 0, 0, 0.33333, 0, 0)"/></g></defs><g><g fill="#939393" stroke="none" stroke-width="2.202" transform="matrix(0.33333, 0, 0, 0.33333, 0, 0)"><use stroke="none" transform="matrix(3, -0, -0, 3, -0, 0)" xlink:href="#mfid248"/></g></g><defs><g id="mfid249"><path d="M76,-44 C76,-90 76,-90 76,-90 C4,-90 4,-90 4,-90 C2,-90 0,-88 0,-86 C0,-14 0,-14 0,-14 C0,-12 2,-10 4,-10 C108,-10 108,-10 108,-10 C110,-10 112,-12 112,-14 C112,-33 112,-33 112,-33 C87,-33 87,-33 87,-33 C81,-33 76,-38 76,-44 Z M64,-18 C48,-18 48,-18 48,-18 C48,-26 48,-26 48,-26 C64,-26 64,-26 64,-26 Z" transform="matrix(0.33333, 0, 0, 0.33333, 0, 0)"/></g></defs><g><g fill="#c2c2c2" stroke="none" stroke-width="2.202" transform="matrix(0.33333, 0, 0, 0.33333, 0, 0)"><use stroke="none" transform="matrix(3, -0, -0, 3, -0, 0)" xlink:href="#mfid249"/></g></g></g></svg></switch><rect width="43.94" height="36.78" x="0" y="557.661" class="st7"/></g><g id="shape1100-47" transform="translate(217.605,-544.76)"><title>Rectangle.1100</title><rect width="285.414" height="34.721" x="0" y="559.719" class="st5"/></g><g id="shape1101-49" transform="translate(217.829,-544.76)"><title>Rectangle.1101</title><desc>Microsoft Intune</desc><rect width="285.71" height="34.721" x="0" y="559.719" class="st7"/><text x="74.75" y="582.48" class="st9">Microsoft Intune</text></g><g id="shape1102-52" transform="translate(229.774,-384.64)"><title>Sheet.1102</title><rect width="257.929" height="148.32" x="0" y="446.121" class="st12"/></g><g id="shape1103-54" transform="translate(242.019,-384.64)"><title>Sheet.1103</title><desc>App Protection Policies (APP) Mobile device management (MDM) ...</desc><rect width="240.225" height="102.604" x="0" y="491.837" class="st7"/><text x="43.05" y="506.64" class="st10">App Protection Policies (APP)<tspan x="26.12" class="st11" dy="1.7em">Mobile device management (MDM)</tspan><tspan x="9.95" class="st11" dy="1.7em">Configuration profiles to manage settings</tspan><tspan x="17.08" class="st13" dy="1.7em">Onboarding to Defender for Endpoint </tspan><tspan x="36.74" class="st13" dy="1.2em">and Microsoft 365 Compliance</tspan></text></g><g id="shape1104-61" transform="translate(354.956,-492.245)"><title>Settings blue.1104</title><path d="M22.68 581.66 C22.68 581.58 22.68 581.51 22.68 581.42 C22.68 581.34 22.68 581.28 22.68 581.2 A2.12875 2.12875 0 0 1 22.68 580.97 L26 578.91 L23.97 574.04 L20.16 574.89 C19.96 574.67 19.74 574.46 19.52 574.26 L20.39 570.47 L15.51 568.44 L13.45 571.75 L12.53 571.75 L10.47 568.44 L5.6 570.47 L6.45 574.26 C6.23 574.46 6.02 574.68 5.82 574.89 L2.03 574.03 L0 578.91 L3.31 580.96 C3.31 581.03 3.31 581.12 3.31 581.19 A2.21 2.21 -180 0 0 3.31 581.42 A2.28313 2.28313 -180 0 0 3.31 581.65 C3.31 581.73 3.31 581.81 3.31 581.88 L0 583.94 L2.03 588.82 L5.82 587.94 C6.02 588.17 6.23 588.38 6.45 588.58 L5.59 592.39 L10.47 594.42 L12.52 591.11 L13.44 591.11 L15.5 594.44 L20.38 592.41 L19.5 588.6 A7.97063 7.97063 -180 0 0 20.14 587.96 L23.93 588.83 L25.96 583.95 L22.67 581.89 A2.12875 2.12875 0 0 1 22.68 581.66 ZM17.4 583.29 A4.745 4.745 0 0 1 14.85 585.84 A4.63125 4.63125 0 0 1 12.98 586.22 A4.68813 4.68813 0 0 1 11.12 585.84 A4.81813 4.81813 0 0 1 8.56 583.29 A4.62312 4.62312 0 0 1 8.19 581.42 A4.68 4.68 0 0 1 8.56 579.55 A4.875 4.875 0 0 1 11.12 577 A4.68 4.68 0 0 1 12.98 576.62 A4.62312 4.62312 0 0 1 14.85 577 A4.81812 4.81812 0 0 1 17.4 579.55 A4.68812 4.68812 0 0 1 17.79 581.42 A4.63125 4.63125 0 0 1 17.4 583.29 L17.4 583.29 Z" class="st5"/></g><g id="shape1105-63" transform="translate(163.5,-545.526)"><title>Dark Grey - 1.1105</title><desc>1</desc><ellipse cx="14.059" cy="580.382" class="st14" rx="14.059" ry="14.059"/><text x="9.5" y="585.78" class="st15">1</text></g><g id="shape1107-66" transform="translate(253.775,-388.991)"><title>Sheet.1107</title><rect width="217.744" height="36.153" x="0" y="558.287" class="st16"/></g><g id="shape1114-68" transform="translate(177.219,-96.6446)"><title>Sheet.1114</title><path d="M0 407.24 L0 594.44 L30.23 593.98" class="st17"/></g><g id="shape1111-74" transform="translate(163.5,-118.586)"><title>Dark Grey - 1.1111</title><desc>3</desc><ellipse cx="14.059" cy="580.382" class="st14" rx="14.059" ry="14.059"/><text x="9.5" y="585.78" class="st15">3</text></g><g id="shape1113-77" transform="translate(177.219,-283.845)"><title>Sheet.1113</title><path d="M76.56 475.64 L0 475.64 L0 594.44 L59.94 594.44" class="st19"/></g><g id="shape1108-82" transform="translate(163.5,-348.645)"><title>Dark Grey - 1.1108</title><desc>2</desc><ellipse cx="14.059" cy="580.382" class="st14" rx="14.059" ry="14.059"/><text x="9.5" y="585.78" class="st15">2</text></g></g></svg>