<svg xmlns="http://www.w3.org/2000/svg" xmlns:ev="http://www.w3.org/2001/xml-events" xmlns:xlink="http://www.w3.org/1999/xlink" width="1331.165" height="781.128" class="st31" color-interpolation-filters="sRGB" viewBox="0 0 998.375 585.846" xml:space="preserve"><style type="text/css">.st1,.st2{fill:#fff;stroke:none;stroke-width:.25}.st2{fill:#f2f2f2;stroke-linecap:round;stroke-linejoin:round;stroke-width:.75}.st3{stroke:#bfbfbf;stroke-width:1}.st4{fill:none;stroke:none;stroke-width:.25}.st5{fill:#0078d4;stroke:#0078d4;stroke-width:1}.st6{fill:#fff;font-family:Segoe UI Semibold;font-size:1.16666em}.st7{font-size:1em}.st8{fill:none;stroke:none;stroke-linecap:round;stroke-linejoin:round;stroke-width:.75}.st10,.st9{font-family:Segoe UI Semibold}.st9{fill:#0078d4;font-size:1.16666em}.st10{fill:#000;font-size:1.00001em}.st11,.st12{font-size:.749994em}.st12{font-family:Calibri}.st13{fill:#0070c0;font-family:Segoe UI Semibold;font-size:1.16666em}.st14{fill:#0078d4;stroke:none;stroke-width:1}.st15,.st16{fill:#fff;font-family:Segoe UI Semibold;font-size:1.99999em}.st16{font-size:1.00001em}.st17{fill:#4672c4;font-family:Segoe UI;font-size:.75em}.st18{fill:#c4e6f7;stroke:none;stroke-width:2}.st19{fill:#000;font-family:Segoe UI;font-size:.75em}.st20{stroke:#c4e6f7;stroke-width:6}.st21,.st22{fill:#c4e6f7;stroke:red;stroke-width:2}.st22{stroke:none;stroke-width:2.25}.st23{stroke:#c4e6f7;stroke-linecap:round;stroke-linejoin:round;stroke-width:6}.st24{font-size:1em;font-style:italic}.st25{fill:#149c14;stroke:none;stroke-linecap:round;stroke-linejoin:round;stroke-width:3}.st26,.st27{fill:#4672c4;font-family:Segoe UI;font-size:1.00001em}.st27{font-size:.75em;font-weight:700}.st28{font-size:1em;font-weight:400}.st29,.st30{stroke-width:2.25}.st29{fill:#c4e6f7;fill-opacity:.5;stroke:none}.st30{stroke:red;stroke-linecap:butt}.st31{fill:none;fill-rule:evenodd;font-size:12px;overflow:visible;stroke-linecap:square;stroke-miterlimit:3}</style><g><title>Page-1</title><g id="shape1313-1" transform="translate(0.25,-0.25)"><title>Sheet.1313</title><rect width="997.875" height="585.346" x="0" y=".5" class="st1"/></g><g id="shape1175-3" transform="translate(12.0966,-189.264)"><title>Sheet.1175</title><rect width="972" height="108" x="0" y="477.846" class="st2"/></g><g id="shape1176-5" transform="translate(99.3966,-244.389)"><title>Arrow 1 - gray.1176</title><path d="M0 585.85 L884.7 585.85" class="st3"/></g><g id="shape25-8" transform="translate(122.347,-210.264)"><title>Devices.25</title><rect width="29.617" height="24.791" x="0" y="561.055" class="st4"/><switch><svg width="29.617" height="24.791" x="0" y="561.055" color-interpolation-filters="sRGB" enable-background="new" preserveAspectRatio="none" viewBox="0 -39.008 43.008 36"><defs><clipPath id="mfid22"><rect id="mfid23" width="43.008" height="36" x="0" y="-39.008"/></clipPath></defs><g clip-path="url(#mfid22)"><defs><g id="mfid24"><path d="M125,-118 C87,-118 87,-118 87,-118 C85,-118 84,-117 84,-115 C84,-115 84,-115 84,-115 C84,-44 84,-44 84,-44 C84,-42 85,-41 87,-41 C87,-41 87,-41 87,-41 C125,-41 125,-41 125,-41 C127,-41 128,-42 128,-44 C128,-44 128,-44 128,-44 C128,-115 128,-115 128,-115 C128,-117 127,-118 125,-118 Z M112,-47 C101,-47 101,-47 101,-47 C101,-52 101,-52 101,-52 C112,-52 112,-52 112,-52 Z" transform="matrix(0.33333, 0, 0, 0.33333, 0, 0)"/></g></defs><g><g fill="#939393" stroke="none" stroke-width="3.267" transform="matrix(0.33333, 0, 0, 0.33333, 0, 0)"><use stroke="none" transform="matrix(3, -0, -0, 3, -0, 0)" xlink:href="#mfid24"/></g></g><defs><g id="mfid25"><path d="M76,-44 C76,-90 76,-90 76,-90 C4,-90 4,-90 4,-90 C2,-90 0,-88 0,-86 C0,-14 0,-14 0,-14 C0,-12 2,-10 4,-10 C108,-10 108,-10 108,-10 C110,-10 112,-12 112,-14 C112,-33 112,-33 112,-33 C87,-33 87,-33 87,-33 C81,-33 76,-38 76,-44 Z M64,-18 C48,-18 48,-18 48,-18 C48,-26 48,-26 48,-26 C64,-26 64,-26 64,-26 Z" transform="matrix(0.33333, 0, 0, 0.33333, 0, 0)"/></g></defs><g><g fill="#c2c2c2" stroke="none" stroke-width="3.267" transform="matrix(0.33333, 0, 0, 0.33333, 0, 0)"><use stroke="none" transform="matrix(3, -0, -0, 3, -0, 0)" xlink:href="#mfid25"/></g></g></g></svg></switch><rect width="29.617" height="24.791" x="0" y="561.055" class="st4"/></g><g id="shape26-11" transform="translate(122.347,-255.093)"><title>Monitor / TV.26</title><rect width="29.617" height="22.742" x="0" y="563.104" class="st4"/><switch><svg width="29.617" height="22.742" x="0" y="563.104" color-interpolation-filters="sRGB" enable-background="new" preserveAspectRatio="none" viewBox="0 -38.016 43.008 33.024"><defs><clipPath id="mfid26"><rect id="mfid27" width="43.008" height="33.024" x="0" y="-38.016"/></clipPath></defs><g clip-path="url(#mfid26)"><defs><g id="mfid28"><path d="M128,-37 C128,-110 128,-110 128,-110 C128,-112 126,-114 124,-114 C4,-114 4,-114 4,-114 C2,-114 0,-112 0,-110 C0,-37 0,-37 0,-37 C0,-35 2,-33 4,-33 C59,-33 59,-33 59,-33 C59,-22 59,-22 59,-22 C39,-22 39,-22 39,-22 C39,-14 39,-14 39,-14 C88,-14 88,-14 88,-14 C88,-22 88,-22 88,-22 C68,-22 68,-22 68,-22 C68,-34 68,-34 68,-34 C124,-34 124,-34 124,-34 C126,-34 128,-35 128,-37 Z" transform="matrix(0.33333, 0, 0, 0.33333, 0, 0)"/></g></defs><g><g fill="#c2c2c2" stroke="none" stroke-width="3.267" transform="matrix(0.33333, 0, 0, 0.33333, 0, 0)"><use stroke="none" transform="matrix(3, -0, -0, 3, -0, 0)" xlink:href="#mfid28"/></g></g></g></svg></switch><rect width="29.617" height="22.742" x="0" y="563.104" class="st4"/></g><g id="shape1177-14" transform="translate(176.347,-459.358)"><title>Sheet.1177</title><desc>Microsoft Entra Conditional Access policies</desc><rect width="574.875" height="62.906" x="0" y="522.94" class="st5"/><text x="11.2" y="550.54" class="st6">Microsoft Entra Conditional Access <tspan x="11.2" class="st7" dy="1.1em">policies</tspan></text></g><g id="shape1178-18" transform="translate(18.0966,-475.485)"><title>Sheet.1178</title><desc>Protection level</desc><rect width="88.142" height="30.652" x="0" y="555.194" class="st8"/><text x="0" y="567.79" class="st9">Protection <tspan x="0" class="st7" dy="1.2em">level</tspan></text></g><g id="shape1179-22" transform="translate(18.0966,-377.024)"><title>Sheet.1179</title><desc>Starting point</desc><rect width="88.142" height="30.652" x="0" y="555.194" class="st8"/><text x="0" y="574.12" class="st10">Starting point</text></g><g id="shape1180-25" transform="translate(18.0966,-82.2452)"><title>Sheet.1180</title><desc>Specialized security (only if needed for specific data sets o...</desc><rect width="88.142" height="45.669" x="0" y="540.177" class="st8"/><text x="0" y="544.3" class="st10">Specialized <tspan x="0" class="st7" dy="1.2em">security</tspan><tspan x="0" class="st11" dy="1.169em">(</tspan><tspan class="st12">only if needed for </tspan><tspan x="0" class="st12" dy="1.006em">specific data sets or </tspan><tspan x="0" class="st12" dy="1.25em">users)</tspan></text></g><g id="shape1181-33" transform="translate(112.563,-474.037)"><title>Sheet.1181</title><desc>Device type</desc><rect width="59.284" height="33.548" x="0" y="552.298" class="st8"/><text x="0" y="564.9" class="st13">Device <tspan x="0" class="st7" dy="1.2em">type</tspan></text></g><a xlink:href="https://learn.microsoft.com/microsoft-365/security/office-365-security/microsoft-365-policies-configurations"><g id="shape1182-37" transform="translate(12.0966,-528.345)"><title>Sheet.1182</title><desc>Zero Trust identity and device access policies</desc><rect width="972" height="45.669" x="0" y="540.177" class="st14"/><text x="15.52" y="569.61" class="st15">Zero Trust identity and device access policies</text></g></a><g id="shape1183-40" transform="translate(761.347,-459.264)"><title>Sheet.1183</title><desc>Intune device compliance policy</desc><rect width="103.521" height="62.906" x="0" y="522.94" class="st14"/><text x="11.2" y="544.49" class="st16">Intune device <tspan x="11.2" class="st7" dy="1.1em">compliance </tspan><tspan x="11.2" class="st7" dy="1.1em">policy</tspan></text></g><g id="shape1184-45" transform="translate(876.478,-459.264)"><title>Sheet.1184</title><desc>Intune app protection policies</desc><rect width="107.618" height="62.906" x="0" y="522.94" class="st14"/><text x="11.2" y="544.49" class="st16">Intune app <tspan x="11.2" class="st7" dy="1.1em">protection </tspan><tspan x="11.2" class="st7" dy="1.1em">policies</tspan></text></g><g id="shape1185-50" transform="translate(100.664,-392.35)"><title>Arrow 1 - gray.1185</title><path d="M0 585.85 L883.43 585.85" class="st3"/></g><g id="shape27-53" transform="translate(122.347,-416.272)"><title>Monitor / TV.27</title><rect width="29.617" height="22.742" x="0" y="563.104" class="st4"/><switch><svg width="29.617" height="22.742" x="0" y="563.104" color-interpolation-filters="sRGB" enable-background="new" preserveAspectRatio="none" viewBox="0 -38.016 43.008 33.024"><defs><clipPath id="mfid29"><rect id="mfid30" width="43.008" height="33.024" x="0" y="-38.016"/></clipPath></defs><g clip-path="url(#mfid29)"><defs><g id="mfid31"><path d="M128,-37 C128,-110 128,-110 128,-110 C128,-112 126,-114 124,-114 C4,-114 4,-114 4,-114 C2,-114 0,-112 0,-110 C0,-37 0,-37 0,-37 C0,-35 2,-33 4,-33 C59,-33 59,-33 59,-33 C59,-22 59,-22 59,-22 C39,-22 39,-22 39,-22 C39,-14 39,-14 39,-14 C88,-14 88,-14 88,-14 C88,-22 88,-22 88,-22 C68,-22 68,-22 68,-22 C68,-34 68,-34 68,-34 C124,-34 124,-34 124,-34 C126,-34 128,-35 128,-37 Z" transform="matrix(0.33333, 0, 0, 0.33333, 0, 0)"/></g></defs><g><g fill="#c2c2c2" stroke="none" stroke-width="3.267" transform="matrix(0.33333, 0, 0, 0.33333, 0, 0)"><use stroke="none" transform="matrix(3, -0, -0, 3, -0, 0)" xlink:href="#mfid31"/></g></g></g></svg></switch><rect width="29.617" height="22.742" x="0" y="563.104" class="st4"/></g><g id="shape1186-56" transform="translate(120.133,-397.221)"><title>Sheet.1186</title><desc>PCs</desc><rect width="31.426" height="20" x="0" y="565.846" class="st4"/><text x="8.5" y="578.55" class="st17">PCs</text></g><g id="shape28-59" transform="translate(122.347,-358.756)"><title>Devices.28</title><rect width="29.617" height="24.791" x="0" y="561.055" class="st4"/><switch><svg width="29.617" height="24.791" x="0" y="561.055" color-interpolation-filters="sRGB" enable-background="new" preserveAspectRatio="none" viewBox="0 -39.008 43.008 36"><defs><clipPath id="mfid32"><rect id="mfid33" width="43.008" height="36" x="0" y="-39.008"/></clipPath></defs><g clip-path="url(#mfid32)"><defs><g id="mfid34"><path d="M125,-118 C87,-118 87,-118 87,-118 C85,-118 84,-117 84,-115 C84,-115 84,-115 84,-115 C84,-44 84,-44 84,-44 C84,-42 85,-41 87,-41 C87,-41 87,-41 87,-41 C125,-41 125,-41 125,-41 C127,-41 128,-42 128,-44 C128,-44 128,-44 128,-44 C128,-115 128,-115 128,-115 C128,-117 127,-118 125,-118 Z M112,-47 C101,-47 101,-47 101,-47 C101,-52 101,-52 101,-52 C112,-52 112,-52 112,-52 Z" transform="matrix(0.33333, 0, 0, 0.33333, 0, 0)"/></g></defs><g><g fill="#939393" stroke="none" stroke-width="3.267" transform="matrix(0.33333, 0, 0, 0.33333, 0, 0)"><use stroke="none" transform="matrix(3, -0, -0, 3, -0, 0)" xlink:href="#mfid34"/></g></g><defs><g id="mfid35"><path d="M76,-44 C76,-90 76,-90 76,-90 C4,-90 4,-90 4,-90 C2,-90 0,-88 0,-86 C0,-14 0,-14 0,-14 C0,-12 2,-10 4,-10 C108,-10 108,-10 108,-10 C110,-10 112,-12 112,-14 C112,-33 112,-33 112,-33 C87,-33 87,-33 87,-33 C81,-33 76,-38 76,-44 Z M64,-18 C48,-18 48,-18 48,-18 C48,-26 48,-26 48,-26 C64,-26 64,-26 64,-26 Z" transform="matrix(0.33333, 0, 0, 0.33333, 0, 0)"/></g></defs><g><g fill="#c2c2c2" stroke="none" stroke-width="3.267" transform="matrix(0.33333, 0, 0, 0.33333, 0, 0)"><use stroke="none" transform="matrix(3, -0, -0, 3, -0, 0)" xlink:href="#mfid35"/></g></g></g></svg></switch><rect width="29.617" height="24.791" x="0" y="561.055" class="st4"/></g><g id="shape1187-62" transform="translate(102.097,-336.971)"><title>Sheet.1187</title><desc>Phones and tablets</desc><rect width="68.284" height="20" x="0" y="565.846" class="st4"/><text x="10.91" y="573.15" class="st17">Phones and <tspan x="20.8" class="st7" dy="1.2em">tablets</tspan></text></g><g id="shape1188-66" transform="translate(99.819,-105.081)"><title>Arrow 1 - gray.1188</title><path d="M0 585.85 L884.28 585.85" class="st3"/></g><g id="shape29-69" transform="translate(123.162,-72.264)"><title>Devices.29</title><rect width="29.617" height="24.791" x="0" y="561.055" class="st4"/><switch><svg width="29.617" height="24.791" x="0" y="561.055" color-interpolation-filters="sRGB" enable-background="new" preserveAspectRatio="none" viewBox="0 -39.008 43.008 36"><defs><clipPath id="mfid36"><rect id="mfid37" width="43.008" height="36" x="0" y="-39.008"/></clipPath></defs><g clip-path="url(#mfid36)"><defs><g id="mfid38"><path d="M125,-118 C87,-118 87,-118 87,-118 C85,-118 84,-117 84,-115 C84,-115 84,-115 84,-115 C84,-44 84,-44 84,-44 C84,-42 85,-41 87,-41 C87,-41 87,-41 87,-41 C125,-41 125,-41 125,-41 C127,-41 128,-42 128,-44 C128,-44 128,-44 128,-44 C128,-115 128,-115 128,-115 C128,-117 127,-118 125,-118 Z M112,-47 C101,-47 101,-47 101,-47 C101,-52 101,-52 101,-52 C112,-52 112,-52 112,-52 Z" transform="matrix(0.33333, 0, 0, 0.33333, 0, 0)"/></g></defs><g><g fill="#939393" stroke="none" stroke-width="3.267" transform="matrix(0.33333, 0, 0, 0.33333, 0, 0)"><use stroke="none" transform="matrix(3, -0, -0, 3, -0, 0)" xlink:href="#mfid38"/></g></g><defs><g id="mfid39"><path d="M76,-44 C76,-90 76,-90 76,-90 C4,-90 4,-90 4,-90 C2,-90 0,-88 0,-86 C0,-14 0,-14 0,-14 C0,-12 2,-10 4,-10 C108,-10 108,-10 108,-10 C110,-10 112,-12 112,-14 C112,-33 112,-33 112,-33 C87,-33 87,-33 87,-33 C81,-33 76,-38 76,-44 Z M64,-18 C48,-18 48,-18 48,-18 C48,-26 48,-26 48,-26 C64,-26 64,-26 64,-26 Z" transform="matrix(0.33333, 0, 0, 0.33333, 0, 0)"/></g></defs><g><g fill="#c2c2c2" stroke="none" stroke-width="3.267" transform="matrix(0.33333, 0, 0, 0.33333, 0, 0)"><use stroke="none" transform="matrix(3, -0, -0, 3, -0, 0)" xlink:href="#mfid39"/></g></g></g></svg></switch><rect width="29.617" height="24.791" x="0" y="561.055" class="st4"/></g><g id="shape30-72" transform="translate(123.162,-114.244)"><title>Monitor / TV.30</title><rect width="29.617" height="22.742" x="0" y="563.104" class="st4"/><switch><svg width="29.617" height="22.742" x="0" y="563.104" color-interpolation-filters="sRGB" enable-background="new" preserveAspectRatio="none" viewBox="0 -38.016 43.008 33.024"><defs><clipPath id="mfid40"><rect id="mfid41" width="43.008" height="33.024" x="0" y="-38.016"/></clipPath></defs><g clip-path="url(#mfid40)"><defs><g id="mfid42"><path d="M128,-37 C128,-110 128,-110 128,-110 C128,-112 126,-114 124,-114 C4,-114 4,-114 4,-114 C2,-114 0,-112 0,-110 C0,-37 0,-37 0,-37 C0,-35 2,-33 4,-33 C59,-33 59,-33 59,-33 C59,-22 59,-22 59,-22 C39,-22 39,-22 39,-22 C39,-14 39,-14 39,-14 C88,-14 88,-14 88,-14 C88,-22 88,-22 88,-22 C68,-22 68,-22 68,-22 C68,-34 68,-34 68,-34 C124,-34 124,-34 124,-34 C126,-34 128,-35 128,-37 Z" transform="matrix(0.33333, 0, 0, 0.33333, 0, 0)"/></g></defs><g><g fill="#c2c2c2" stroke="none" stroke-width="3.267" transform="matrix(0.33333, 0, 0, 0.33333, 0, 0)"><use stroke="none" transform="matrix(3, -0, -0, 3, -0, 0)" xlink:href="#mfid42"/></g></g></g></svg></switch><rect width="29.617" height="22.742" x="0" y="563.104" class="st4"/></g><a xlink:href="https://learn.microsoft.com/microsoft-365/security/office-365-security/identity-access-policies#device-compliance-policies"><g id="shape1189-75" transform="translate(761.347,-58.764)"><title>Sheet.1189</title><desc>Define compliance policies (one for each platform)</desc><rect width="103.521" height="228.759" x="0" y="357.087" class="st18"/><text x="8" y="372.51" class="st19">Define compliance <tspan x="8" class="st7" dy="1.1em">policies (one for </tspan><tspan x="8" class="st7" dy="1.1em">each platform)</tspan></text></g></a><a xlink:href="https://learn.microsoft.com/microsoft-365/enterprise/identity-access-policies#high-risk-users-must-change-password"><g id="shape1190-80" transform="translate(640.333,-58.764)"><title>Sheet.1190</title><desc>High risk users must change password This policy forces users...</desc><rect width="111.595" height="391.5" x="0" y="194.346" class="st18"/><text x="8" y="209.77" class="st19">High risk users must <tspan x="8" class="st7" dy="1.1em">change password</tspan><tspan x="8" class="st7" dy="2.2em">This policy forces users </tspan><tspan x="8" class="st7" dy="1.1em">to change their </tspan><tspan x="8" class="st7" dy="1.1em">password when signing </tspan><tspan x="8" class="st7" dy="1.1em">in if high risk activity is </tspan><tspan x="8" class="st7" dy="1.1em">detected for their </tspan><tspan x="8" class="st7" dy="1.1em">account.</tspan></text></g></a><g id="shape1191-90" transform="translate(1514.08,263.582) rotate(90)"><title>Sheet.1191</title><path d="M0 585.85 L83 585.85" class="st20"/></g><a xlink:href="https://learn.microsoft.com/microsoft-365/security/office-365-security/identity-access-policies#app-protection-policies"><g id="shape1192-93" transform="translate(876.478,-200.514)"><title>Sheet.1192</title><desc>Apply Level 2 APP data protection</desc><rect width="103.521" height="36" x="0" y="549.846" class="st18"/><text x="8" y="565.27" class="st19">Apply Level 2 APP <tspan x="8" class="st7" dy="1.1em">data protection</tspan></text></g></a><a xlink:href="https://learn.microsoft.com/microsoft-365/security/office-365-security/identity-access-policies#app-protection-policies"><g id="shape1193-97" transform="translate(876.478,-58.764)"><title>Sheet.1193</title><desc>Apply Level 3 APP data protection</desc><rect width="103.521" height="40.081" x="0" y="545.765" class="st18"/><text x="8" y="561.19" class="st19">Apply Level 3 APP <tspan x="8" class="st7" dy="1.1em">data protection</tspan></text></g></a><a xlink:href="https://learn.microsoft.com/microsoft-365/security/office-365-security/identity-access-policies#app-protection-policies"><g id="shape1194-101" transform="translate(876.478,-322.264)"><title>Sheet.1194</title><desc>Apply Level 2 App Protection Policies (APP) data protection (...</desc><rect width="103.521" height="65" x="0" y="520.846" class="st21"/><text x="8" y="536.27" class="st19">Apply Level 2 App <tspan x="8" class="st7" dy="1.1em">Protection Policies </tspan><tspan x="8" class="st7" dy="1.1em">(APP) data protection </tspan><tspan x="8" class="st7" dy="1.1em">(one for each </tspan><tspan x="8" class="st7" dy="1.1em">platform)</tspan></text></g></a><a xlink:href="https://learn.microsoft.com/microsoft-365/enterprise/identity-access-policies#require-compliant-pcs-and-mobile-devices"><g id="shape1195-108" transform="translate(522.141,-58.764)"><title>Sheet.1195</title><desc>Require compliant PCs and mobile devices This policy enforces...</desc><rect width="103.521" height="230.928" x="0" y="354.918" class="st18"/><text x="8" y="370.34" class="st19">Require compliant <tspan x="8" class="st7" dy="1.1em">PCs and mobile </tspan><tspan x="8" class="st7" dy="1.1em">devices</tspan><tspan x="8" class="st7" dy="3.089em">This policy enforces </tspan><tspan x="8" class="st7" dy="1.1em">Intune management </tspan><tspan x="8" class="st7" dy="1.1em">for PCs, phones, and </tspan><tspan x="8" class="st7" dy="1.1em">tablets.</tspan></text></g></a><a xlink:href="https://learn.microsoft.com/azure/active-directory/conditional-access/howto-conditional-access-policy-block-legacy"><g id="shape1196-117" transform="translate(409.305,-58.764)"><title>Sheet.1196</title><desc>Block clients that don’t support modern authentication Client...</desc><rect width="103.521" height="391.5" x="0" y="194.346" class="st22"/><text x="8" y="209.77" class="st19">Block clients that <tspan x="8" class="st7" dy="1.1em">don</tspan>’t support <tspan x="8" class="st7" dy="1.1em">modern </tspan><tspan x="8" class="st7" dy="1.1em">authentication </tspan><tspan x="8" class="st7" dy="2.644em">Clients that do not </tspan><tspan x="8" class="st7" dy="1.1em">use modern </tspan><tspan x="8" class="st7" dy="1.1em">authentication can </tspan><tspan x="8" class="st7" dy="1.1em">bypass Conditional </tspan><tspan x="8" class="st7" dy="1.1em">Access policies.</tspan></text></g></a><g id="shape1197-128" transform="translate(933.786,267.207) rotate(90)"><title>Sheet.1197</title><path d="M0 585.85 L225 585.85" class="st23"/></g><a xlink:href="https://learn.microsoft.com/microsoft-365/security/office-365-security/identity-access-policies#app-protection-policies"><g id="shape1198-131" transform="translate(296.179,-200.514)"><title>Sheet.1198</title><desc>Require approved apps</desc><rect width="103.521" height="36" x="0" y="549.846" class="st18"/><text x="8" y="565.27" class="st19">Require <tspan x="8" class="st7" dy="1.1em">approved apps</tspan></text></g></a><a xlink:href="https://learn.microsoft.com/microsoft-365/security/office-365-security/identity-access-policies#app-protection-policies"><g id="shape1199-135" transform="translate(296.179,-316.335)"><title>Sheet.1199</title><desc>Require approved apps This policy enforces mobile app protect...</desc><rect width="103.521" height="70.929" x="0" y="514.918" class="st21"/><text x="8" y="526.11" class="st19">Require approved <tspan x="8" class="st7" dy="1.1em">apps</tspan><tspan x="8" class="st7" dy="1.544em">This policy enforces </tspan><tspan x="8" class="st7" dy="1.1em">mobile app </tspan><tspan x="8" class="st7" dy="1.1em">protection for phones </tspan><tspan x="8" class="st7" dy="1.1em">&amp; tablets.</tspan></text></g></a><a xlink:href="https://docs.microsoft.com/microsoft-365/enterprise/identity-access-policies?view=o365-worldwide#require-mfa-based-on-sign-in-risk"><g id="shape1200-143" transform="translate(182.852,-202.764)"><title>Sheet.1200</title><desc>Require MFA when sign-in risk is low, medium, or high</desc><rect width="104.035" height="84.793" x="0" y="501.053" class="st22"/><text x="8" y="516.48" class="st19">Require MFA when <tspan x="8" class="st7" dy="1.1em">sign</tspan>-in risk is low, <tspan x="8" class="st7" dy="1.1em">medium, or high</tspan></text></g></a><a xlink:href="https://docs.microsoft.com/microsoft-365/enterprise/identity-access-policies#require-mfa-based-on-sign-in-risk"><g id="shape1201-148" transform="translate(182.852,-319.764)"><title>Sheet.1201</title><desc>Require multifactor authentication (MFA) when sign-in risk is...</desc><rect width="104.035" height="130.5" x="0" y="455.346" class="st22"/><text x="8" y="470.77" class="st19">Require multifactor <tspan x="8" class="st7" dy="1.1em">authentication (MFA) </tspan><tspan x="8" class="st7" dy="1.1em">when sign</tspan>-in risk is <tspan x="8" class="st24" dy="1.1em">medium</tspan> or <tspan class="st24">high</tspan></text></g></a><a xlink:href="https://learn.microsoft.com/microsoft-365/enterprise/identity-access-policies#require-mfa-based-on-sign-in-risk"><g id="shape1202-155" transform="translate(182.852,-58.764)"><title>Sheet.1202</title><desc>Require MFA always This is also available for all Office 365 ...</desc><rect width="104.035" height="90.871" x="0" y="494.975" class="st22"/><text x="8" y="510.4" class="st19">Require MFA <tspan class="st24">always</tspan><tspan x="8" class="st7" dy="2.2em">This is also available </tspan><tspan x="8" class="st7" dy="1.1em">for all Office 365 </tspan><tspan x="8" class="st7" dy="1.1em">Enterprise plans.</tspan></text></g></a><g id="shape1203-162" transform="translate(271.11,-326.501)"><title>Sheet.1203</title><ellipse cx="4.477" cy="581.36" class="st25" rx="4.477" ry="4.486"/></g><g id="shape1204-164" transform="translate(271.11,-209.555)"><title>Sheet.1204</title><ellipse cx="4.477" cy="581.36" class="st25" rx="4.477" ry="4.486"/></g><g id="shape1205-166" transform="translate(736.108,-65.5279)"><title>Sheet.1205</title><ellipse cx="4.477" cy="581.36" class="st25" rx="4.477" ry="4.486"/></g><g id="shape1206-168" transform="translate(18.0966,-215.595)"><title>Sheet.1206</title><desc>Enterprise (Recommended for Zero Trust)</desc><rect width="88.142" height="45.669" x="0" y="540.177" class="st8"/><text x="0" y="556" class="st10">Enterprise<tspan x="0" class="st11" dy="1.169em">(</tspan><tspan class="st12">Recommended for </tspan><tspan x="0" class="st12" dy="1.256em">Zero Trust)</tspan></text></g><g id="shape1207-174" transform="translate(259.999,-19.1468)"><title>Sheet.1207</title><desc>March 2024</desc><rect width="720" height="16.313" x="0" y="569.534" class="st4"/><text x="653.45" y="584.33" class="st26">March 2024</text></g><g id="shape1208-177" transform="translate(18.0966,-23.3354)"><title>Sheet.1208</title><desc>PCs include devices running the Windows or macOS platforms</desc><rect width="290.213" height="20" x="0" y="565.846" class="st4"/><text x="4" y="578.55" class="st27">PCs<tspan class="st28"> </tspan><tspan class="st28">include devices running the Windows or macOS platforms</tspan></text></g><g id="shape1209-182" transform="translate(18.0966,-7.83539)"><title>Sheet.1209</title><desc>Phones and tablets include devices running the iOS, iPadOS, o...</desc><rect width="389.213" height="20" x="0" y="565.846" class="st4"/><text x="4" y="578.55" class="st27">Phones and tablets<tspan class="st28"> </tspan><tspan class="st28">include devices running the iOS, iPadOS, or Android platforms</tspan></text></g><g id="shape1210-187" transform="translate(517.668,-32.9118)"><title>Sheet.1210</title><ellipse cx="4.463" cy="581.373" class="st25" rx="4.463" ry="4.473"/></g><g id="shape1211-189" transform="translate(535.613,-11.2596)"><title>Sheet.1211</title><desc>Requires Microsoft 365 E5, Microsoft 365 E3 with the E5 Ident...</desc><rect width="234" height="30.652" x="0" y="555.194" class="st8"/><text x="0" y="563.29" class="st19">Requires Microsoft 365 E5, Microsoft 365 E3 with the E5 <tspan x="0" class="st7" dy="1.2em">Identity add</tspan>-on, Office 365 with EMS E5, or individual <tspan x="0" class="st7" dy="1.2em">Microsoft Entra ID P2 licenses</tspan></text></g><a xlink:href="https://learn.microsoft.com/microsoft-365/enterprise/identity-access-policies#app-protection-policies"><g id="shape1212-194" transform="translate(296.179,-58.764)"><title>Sheet.1212</title><desc>Require approved apps</desc><rect width="103.521" height="40.081" x="0" y="545.765" class="st22"/><text x="8" y="561.19" class="st19">Require <tspan x="8" class="st7" dy="1.1em">approved apps</tspan></text></g></a><g id="shape1218-198" transform="translate(417.668,-335.46)"><title>Sheet.1218</title><rect width="81" height="54" x="0" y="531.846" class="st29"/></g><g id="shape1312-200" transform="translate(647.548,-348.014)"><title>Sheet.1312</title><rect width="94.5" height="70.929" x="0" y="514.918" class="st29"/></g><g id="shape1219-202" transform="translate(400.295,-357.622)"><title>Sheet.1219</title><path d="M0 585.85 L476.78 585.85" class="st30"/></g></g></svg>