<svg xmlns="http://www.w3.org/2000/svg" xmlns:ev="http://www.w3.org/2001/xml-events" xmlns:xlink="http://www.w3.org/1999/xlink" width="1331.165" height="781.128" class="st34" color-interpolation-filters="sRGB" viewBox="0 0 998.375 585.846" xml:space="preserve"><style type="text/css">.st1,.st2{fill:#fff;stroke:none;stroke-width:.25}.st2{fill:#f2f2f2;stroke-linecap:round;stroke-linejoin:round;stroke-width:.75}.st3{stroke:#bfbfbf;stroke-width:1}.st4{fill:none;stroke:none;stroke-width:.25}.st5{fill:#0078d4;stroke:#0078d4;stroke-width:1}.st6{fill:#fff;font-family:Segoe UI Semibold;font-size:1.16666em}.st7{font-size:1em}.st8{fill:none;stroke:none;stroke-linecap:round;stroke-linejoin:round;stroke-width:.75}.st10,.st9{font-family:Segoe UI Semibold}.st9{fill:#0078d4;font-size:1.16666em}.st10{fill:#000;font-size:1.00001em}.st11,.st12{font-size:.749994em}.st12{font-family:Calibri}.st13{fill:#0070c0;font-family:Segoe UI Semibold;font-size:1.16666em}.st14{fill:#0078d4;stroke:none;stroke-width:1}.st15,.st16{fill:#fff;font-family:Segoe UI Semibold;font-size:1.99999em}.st16{font-size:1.00001em}.st17{fill:#4672c4;font-family:Segoe UI;font-size:.75em}.st18{fill:#c4e6f7;stroke:none;stroke-width:2}.st19{fill:#000;font-family:Segoe UI;font-size:.75em}.st20{stroke:#c4e6f7;stroke-width:6}.st21,.st22{fill:#c4e6f7;stroke:red;stroke-width:2}.st22{stroke:none;stroke-width:2.25}.st23{stroke:#c4e6f7;stroke-linecap:round;stroke-linejoin:round;stroke-width:6}.st24{font-size:1em;font-style:italic}.st25{fill:#149c14;stroke:none;stroke-linecap:round;stroke-linejoin:round;stroke-width:3}.st26,.st27{fill:#4672c4;font-family:Segoe UI;font-size:1.00001em}.st27{font-size:.75em;font-weight:700}.st28{font-size:1em;font-weight:400}.st29{fill:none;stroke:red;stroke-width:2.25}.st30{fill:#505050;stroke:#fff;stroke-width:.25}.st31{fill:#fff;font-family:Calibri;font-size:1.5em}.st32,.st33{stroke-width:2.25}.st32{stroke:red;stroke-linecap:round;stroke-linejoin:round}.st33{fill:#c4e6f7;fill-opacity:.5;stroke:none}.st34{fill:none;fill-rule:evenodd;font-size:12px;overflow:visible;stroke-linecap:square;stroke-miterlimit:3}</style><g><title>Page-1</title><g id="shape1310-1" transform="translate(0.25,-0.25)"><title>Sheet.1310</title><rect width="997.875" height="585.346" x="0" y=".5" class="st1"/></g><g id="shape1129-3" transform="translate(11.2129,-192.607)"><title>Sheet.1129</title><rect width="972" height="108" x="0" y="477.846" class="st2"/></g><g id="shape1130-5" transform="translate(98.5129,-247.732)"><title>Arrow 1 - gray.3208</title><path d="M0 585.85 L884.7 585.85" class="st3"/></g><g id="shape19-8" transform="translate(121.463,-213.607)"><title>Devices.5</title><rect width="29.617" height="24.791" x="0" y="561.055" class="st4"/><switch><svg width="29.617" height="24.791" x="0" y="561.055" color-interpolation-filters="sRGB" enable-background="new" preserveAspectRatio="none" viewBox="0 -39.008 43.008 36"><defs><clipPath id="mfid1"><rect id="mfid2" width="43.008" height="36" x="0" y="-39.008"/></clipPath></defs><g clip-path="url(#mfid1)"><defs><g id="mfid3"><path d="M125,-118 C87,-118 87,-118 87,-118 C85,-118 84,-117 84,-115 C84,-115 84,-115 84,-115 C84,-44 84,-44 84,-44 C84,-42 85,-41 87,-41 C87,-41 87,-41 87,-41 C125,-41 125,-41 125,-41 C127,-41 128,-42 128,-44 C128,-44 128,-44 128,-44 C128,-115 128,-115 128,-115 C128,-117 127,-118 125,-118 Z M112,-47 C101,-47 101,-47 101,-47 C101,-52 101,-52 101,-52 C112,-52 112,-52 112,-52 Z" transform="matrix(0.33333, 0, 0, 0.33333, 0, 0)"/></g></defs><g><g fill="#939393" stroke="none" stroke-width="3.267" transform="matrix(0.33333, 0, 0, 0.33333, 0, 0)"><use stroke="none" transform="matrix(3, -0, -0, 3, -0, 0)" xlink:href="#mfid3"/></g></g><defs><g id="mfid4"><path d="M76,-44 C76,-90 76,-90 76,-90 C4,-90 4,-90 4,-90 C2,-90 0,-88 0,-86 C0,-14 0,-14 0,-14 C0,-12 2,-10 4,-10 C108,-10 108,-10 108,-10 C110,-10 112,-12 112,-14 C112,-33 112,-33 112,-33 C87,-33 87,-33 87,-33 C81,-33 76,-38 76,-44 Z M64,-18 C48,-18 48,-18 48,-18 C48,-26 48,-26 48,-26 C64,-26 64,-26 64,-26 Z" transform="matrix(0.33333, 0, 0, 0.33333, 0, 0)"/></g></defs><g><g fill="#c2c2c2" stroke="none" stroke-width="3.267" transform="matrix(0.33333, 0, 0, 0.33333, 0, 0)"><use stroke="none" transform="matrix(3, -0, -0, 3, -0, 0)" xlink:href="#mfid4"/></g></g></g></svg></switch><rect width="29.617" height="24.791" x="0" y="561.055" class="st4"/></g><g id="shape20-11" transform="translate(121.463,-258.436)"><title>Monitor / TV.6</title><rect width="29.617" height="22.742" x="0" y="563.104" class="st4"/><switch><svg width="29.617" height="22.742" x="0" y="563.104" color-interpolation-filters="sRGB" enable-background="new" preserveAspectRatio="none" viewBox="0 -38.016 43.008 33.024"><defs><clipPath id="mfid5"><rect id="mfid6" width="43.008" height="33.024" x="0" y="-38.016"/></clipPath></defs><g clip-path="url(#mfid5)"><defs><g id="mfid7"><path d="M128,-37 C128,-110 128,-110 128,-110 C128,-112 126,-114 124,-114 C4,-114 4,-114 4,-114 C2,-114 0,-112 0,-110 C0,-37 0,-37 0,-37 C0,-35 2,-33 4,-33 C59,-33 59,-33 59,-33 C59,-22 59,-22 59,-22 C39,-22 39,-22 39,-22 C39,-14 39,-14 39,-14 C88,-14 88,-14 88,-14 C88,-22 88,-22 88,-22 C68,-22 68,-22 68,-22 C68,-34 68,-34 68,-34 C124,-34 124,-34 124,-34 C126,-34 128,-35 128,-37 Z" transform="matrix(0.33333, 0, 0, 0.33333, 0, 0)"/></g></defs><g><g fill="#c2c2c2" stroke="none" stroke-width="3.267" transform="matrix(0.33333, 0, 0, 0.33333, 0, 0)"><use stroke="none" transform="matrix(3, -0, -0, 3, -0, 0)" xlink:href="#mfid7"/></g></g></g></svg></switch><rect width="29.617" height="22.742" x="0" y="563.104" class="st4"/></g><g id="shape1131-14" transform="translate(175.463,-462.701)"><title>Sheet.1131</title><desc>Microsoft Entra Conditional Access policies</desc><rect width="574.875" height="62.906" x="0" y="522.94" class="st5"/><text x="11.2" y="550.54" class="st6">Microsoft Entra Conditional Access <tspan x="11.2" class="st7" dy="1.1em">policies</tspan></text></g><g id="shape1132-18" transform="translate(17.2129,-478.828)"><title>Sheet.1132</title><desc>Protection level</desc><rect width="88.142" height="30.652" x="0" y="555.194" class="st8"/><text x="0" y="567.79" class="st9">Protection <tspan x="0" class="st7" dy="1.2em">level</tspan></text></g><g id="shape1133-22" transform="translate(17.2129,-380.368)"><title>Sheet.1133</title><desc>Starting point</desc><rect width="88.142" height="30.652" x="0" y="555.194" class="st8"/><text x="0" y="574.12" class="st10">Starting point</text></g><g id="shape1134-25" transform="translate(17.2129,-85.5884)"><title>Sheet.1134</title><desc>Specialized security (only if needed for specific data sets o...</desc><rect width="88.142" height="45.669" x="0" y="540.177" class="st8"/><text x="0" y="544.3" class="st10">Specialized <tspan x="0" class="st7" dy="1.2em">security</tspan><tspan x="0" class="st11" dy="1.169em">(</tspan><tspan class="st12">only if needed for </tspan><tspan x="0" class="st12" dy="1.006em">specific data sets or </tspan><tspan x="0" class="st12" dy="1.25em">users)</tspan></text></g><g id="shape1135-33" transform="translate(111.679,-477.38)"><title>Sheet.1135</title><desc>Device type</desc><rect width="59.284" height="33.548" x="0" y="552.298" class="st8"/><text x="0" y="564.9" class="st13">Device <tspan x="0" class="st7" dy="1.2em">type</tspan></text></g><a xlink:href="https://learn.microsoft.com/microsoft-365/security/office-365-security/microsoft-365-policies-configurations"><g id="shape1136-37" transform="translate(11.2129,-531.689)"><title>Sheet.1136</title><desc>Zero Trust identity and device access policies</desc><rect width="972" height="45.669" x="0" y="540.177" class="st14"/><text x="15.52" y="569.61" class="st15">Zero Trust identity and device access policies</text></g></a><g id="shape1137-40" transform="translate(760.463,-462.607)"><title>Sheet.1137</title><desc>Intune device compliance policy</desc><rect width="103.521" height="62.906" x="0" y="522.94" class="st14"/><text x="11.2" y="544.49" class="st16">Intune device <tspan x="11.2" class="st7" dy="1.1em">compliance </tspan><tspan x="11.2" class="st7" dy="1.1em">policy</tspan></text></g><g id="shape1138-45" transform="translate(875.594,-462.607)"><title>Sheet.1138</title><desc>Intune app protection policies</desc><rect width="107.618" height="62.906" x="0" y="522.94" class="st14"/><text x="11.2" y="544.49" class="st16">Intune app <tspan x="11.2" class="st7" dy="1.1em">protection </tspan><tspan x="11.2" class="st7" dy="1.1em">policies</tspan></text></g><g id="shape1139-50" transform="translate(99.7801,-395.694)"><title>Arrow 1 - gray.3217</title><path d="M0 585.85 L883.43 585.85" class="st3"/></g><g id="shape21-53" transform="translate(121.463,-419.615)"><title>Monitor / TV.21</title><rect width="29.617" height="22.742" x="0" y="563.104" class="st4"/><switch><svg width="29.617" height="22.742" x="0" y="563.104" color-interpolation-filters="sRGB" enable-background="new" preserveAspectRatio="none" viewBox="0 -38.016 43.008 33.024"><defs><clipPath id="mfid8"><rect id="mfid9" width="43.008" height="33.024" x="0" y="-38.016"/></clipPath></defs><g clip-path="url(#mfid8)"><defs><g id="mfid10"><path d="M128,-37 C128,-110 128,-110 128,-110 C128,-112 126,-114 124,-114 C4,-114 4,-114 4,-114 C2,-114 0,-112 0,-110 C0,-37 0,-37 0,-37 C0,-35 2,-33 4,-33 C59,-33 59,-33 59,-33 C59,-22 59,-22 59,-22 C39,-22 39,-22 39,-22 C39,-14 39,-14 39,-14 C88,-14 88,-14 88,-14 C88,-22 88,-22 88,-22 C68,-22 68,-22 68,-22 C68,-34 68,-34 68,-34 C124,-34 124,-34 124,-34 C126,-34 128,-35 128,-37 Z" transform="matrix(0.33333, 0, 0, 0.33333, 0, 0)"/></g></defs><g><g fill="#c2c2c2" stroke="none" stroke-width="3.267" transform="matrix(0.33333, 0, 0, 0.33333, 0, 0)"><use stroke="none" transform="matrix(3, -0, -0, 3, -0, 0)" xlink:href="#mfid10"/></g></g></g></svg></switch><rect width="29.617" height="22.742" x="0" y="563.104" class="st4"/></g><g id="shape1140-56" transform="translate(119.25,-400.564)"><title>Sheet.1140</title><desc>PCs</desc><rect width="31.426" height="20" x="0" y="565.846" class="st4"/><text x="8.5" y="578.55" class="st17">PCs</text></g><g id="shape22-59" transform="translate(121.463,-362.099)"><title>Devices.22</title><rect width="29.617" height="24.791" x="0" y="561.055" class="st4"/><switch><svg width="29.617" height="24.791" x="0" y="561.055" color-interpolation-filters="sRGB" enable-background="new" preserveAspectRatio="none" viewBox="0 -39.008 43.008 36"><defs><clipPath id="mfid11"><rect id="mfid12" width="43.008" height="36" x="0" y="-39.008"/></clipPath></defs><g clip-path="url(#mfid11)"><defs><g id="mfid13"><path d="M125,-118 C87,-118 87,-118 87,-118 C85,-118 84,-117 84,-115 C84,-115 84,-115 84,-115 C84,-44 84,-44 84,-44 C84,-42 85,-41 87,-41 C87,-41 87,-41 87,-41 C125,-41 125,-41 125,-41 C127,-41 128,-42 128,-44 C128,-44 128,-44 128,-44 C128,-115 128,-115 128,-115 C128,-117 127,-118 125,-118 Z M112,-47 C101,-47 101,-47 101,-47 C101,-52 101,-52 101,-52 C112,-52 112,-52 112,-52 Z" transform="matrix(0.33333, 0, 0, 0.33333, 0, 0)"/></g></defs><g><g fill="#939393" stroke="none" stroke-width="3.267" transform="matrix(0.33333, 0, 0, 0.33333, 0, 0)"><use stroke="none" transform="matrix(3, -0, -0, 3, -0, 0)" xlink:href="#mfid13"/></g></g><defs><g id="mfid14"><path d="M76,-44 C76,-90 76,-90 76,-90 C4,-90 4,-90 4,-90 C2,-90 0,-88 0,-86 C0,-14 0,-14 0,-14 C0,-12 2,-10 4,-10 C108,-10 108,-10 108,-10 C110,-10 112,-12 112,-14 C112,-33 112,-33 112,-33 C87,-33 87,-33 87,-33 C81,-33 76,-38 76,-44 Z M64,-18 C48,-18 48,-18 48,-18 C48,-26 48,-26 48,-26 C64,-26 64,-26 64,-26 Z" transform="matrix(0.33333, 0, 0, 0.33333, 0, 0)"/></g></defs><g><g fill="#c2c2c2" stroke="none" stroke-width="3.267" transform="matrix(0.33333, 0, 0, 0.33333, 0, 0)"><use stroke="none" transform="matrix(3, -0, -0, 3, -0, 0)" xlink:href="#mfid14"/></g></g></g></svg></switch><rect width="29.617" height="24.791" x="0" y="561.055" class="st4"/></g><g id="shape1141-62" transform="translate(101.213,-340.314)"><title>Sheet.1141</title><desc>Phones and tablets</desc><rect width="68.284" height="20" x="0" y="565.846" class="st4"/><text x="10.91" y="573.15" class="st17">Phones and <tspan x="20.8" class="st7" dy="1.2em">tablets</tspan></text></g><g id="shape1142-66" transform="translate(98.9353,-108.424)"><title>Arrow 1 - gray.3220</title><path d="M0 585.85 L884.28 585.85" class="st3"/></g><g id="shape23-69" transform="translate(122.278,-75.6072)"><title>Devices.23</title><rect width="29.617" height="24.791" x="0" y="561.055" class="st4"/><switch><svg width="29.617" height="24.791" x="0" y="561.055" color-interpolation-filters="sRGB" enable-background="new" preserveAspectRatio="none" viewBox="0 -39.008 43.008 36"><defs><clipPath id="mfid15"><rect id="mfid16" width="43.008" height="36" x="0" y="-39.008"/></clipPath></defs><g clip-path="url(#mfid15)"><defs><g id="mfid17"><path d="M125,-118 C87,-118 87,-118 87,-118 C85,-118 84,-117 84,-115 C84,-115 84,-115 84,-115 C84,-44 84,-44 84,-44 C84,-42 85,-41 87,-41 C87,-41 87,-41 87,-41 C125,-41 125,-41 125,-41 C127,-41 128,-42 128,-44 C128,-44 128,-44 128,-44 C128,-115 128,-115 128,-115 C128,-117 127,-118 125,-118 Z M112,-47 C101,-47 101,-47 101,-47 C101,-52 101,-52 101,-52 C112,-52 112,-52 112,-52 Z" transform="matrix(0.33333, 0, 0, 0.33333, 0, 0)"/></g></defs><g><g fill="#939393" stroke="none" stroke-width="3.267" transform="matrix(0.33333, 0, 0, 0.33333, 0, 0)"><use stroke="none" transform="matrix(3, -0, -0, 3, -0, 0)" xlink:href="#mfid17"/></g></g><defs><g id="mfid18"><path d="M76,-44 C76,-90 76,-90 76,-90 C4,-90 4,-90 4,-90 C2,-90 0,-88 0,-86 C0,-14 0,-14 0,-14 C0,-12 2,-10 4,-10 C108,-10 108,-10 108,-10 C110,-10 112,-12 112,-14 C112,-33 112,-33 112,-33 C87,-33 87,-33 87,-33 C81,-33 76,-38 76,-44 Z M64,-18 C48,-18 48,-18 48,-18 C48,-26 48,-26 48,-26 C64,-26 64,-26 64,-26 Z" transform="matrix(0.33333, 0, 0, 0.33333, 0, 0)"/></g></defs><g><g fill="#c2c2c2" stroke="none" stroke-width="3.267" transform="matrix(0.33333, 0, 0, 0.33333, 0, 0)"><use stroke="none" transform="matrix(3, -0, -0, 3, -0, 0)" xlink:href="#mfid18"/></g></g></g></svg></switch><rect width="29.617" height="24.791" x="0" y="561.055" class="st4"/></g><g id="shape24-72" transform="translate(122.278,-117.587)"><title>Monitor / TV.24</title><rect width="29.617" height="22.742" x="0" y="563.104" class="st4"/><switch><svg width="29.617" height="22.742" x="0" y="563.104" color-interpolation-filters="sRGB" enable-background="new" preserveAspectRatio="none" viewBox="0 -38.016 43.008 33.024"><defs><clipPath id="mfid19"><rect id="mfid20" width="43.008" height="33.024" x="0" y="-38.016"/></clipPath></defs><g clip-path="url(#mfid19)"><defs><g id="mfid21"><path d="M128,-37 C128,-110 128,-110 128,-110 C128,-112 126,-114 124,-114 C4,-114 4,-114 4,-114 C2,-114 0,-112 0,-110 C0,-37 0,-37 0,-37 C0,-35 2,-33 4,-33 C59,-33 59,-33 59,-33 C59,-22 59,-22 59,-22 C39,-22 39,-22 39,-22 C39,-14 39,-14 39,-14 C88,-14 88,-14 88,-14 C88,-22 88,-22 88,-22 C68,-22 68,-22 68,-22 C68,-34 68,-34 68,-34 C124,-34 124,-34 124,-34 C126,-34 128,-35 128,-37 Z" transform="matrix(0.33333, 0, 0, 0.33333, 0, 0)"/></g></defs><g><g fill="#c2c2c2" stroke="none" stroke-width="3.267" transform="matrix(0.33333, 0, 0, 0.33333, 0, 0)"><use stroke="none" transform="matrix(3, -0, -0, 3, -0, 0)" xlink:href="#mfid21"/></g></g></g></svg></switch><rect width="29.617" height="22.742" x="0" y="563.104" class="st4"/></g><a xlink:href="https://learn.microsoft.com/microsoft-365/security/office-365-security/identity-access-policies#device-compliance-policies"><g id="shape1143-75" transform="translate(760.463,-62.1072)"><title>Sheet.1143</title><desc>Define compliance policies (one for each platform)</desc><rect width="103.521" height="228.759" x="0" y="357.087" class="st18"/><text x="8" y="372.51" class="st19">Define compliance <tspan x="8" class="st7" dy="1.1em">policies (one for </tspan><tspan x="8" class="st7" dy="1.1em">each platform)</tspan></text></g></a><a xlink:href="https://learn.microsoft.com/microsoft-365/enterprise/identity-access-policies#high-risk-users-must-change-password"><g id="shape1144-80" transform="translate(639.45,-62.1072)"><title>Sheet.1144</title><desc>High risk users must change password This policy forces users...</desc><rect width="111.595" height="391.5" x="0" y="194.346" class="st18"/><text x="8" y="209.77" class="st19">High risk users must <tspan x="8" class="st7" dy="1.1em">change password</tspan><tspan x="8" class="st7" dy="2.2em">This policy forces users </tspan><tspan x="8" class="st7" dy="1.1em">to change their </tspan><tspan x="8" class="st7" dy="1.1em">password when signing </tspan><tspan x="8" class="st7" dy="1.1em">in if high risk activity is </tspan><tspan x="8" class="st7" dy="1.1em">detected for their </tspan><tspan x="8" class="st7" dy="1.1em">account.</tspan></text></g></a><g id="shape1145-90" transform="translate(1513.2,260.239) rotate(90)"><title>Sheet.1145</title><path d="M0 585.85 L83 585.85" class="st20"/></g><a xlink:href="https://learn.microsoft.com/microsoft-365/security/office-365-security/identity-access-policies#app-protection-policies"><g id="shape1146-93" transform="translate(875.594,-203.857)"><title>Sheet.1146</title><desc>Apply Level 2 APP data protection</desc><rect width="103.521" height="36" x="0" y="549.846" class="st18"/><text x="8" y="565.27" class="st19">Apply Level 2 APP <tspan x="8" class="st7" dy="1.1em">data protection</tspan></text></g></a><a xlink:href="https://learn.microsoft.com/microsoft-365/security/office-365-security/identity-access-policies#app-protection-policies"><g id="shape1147-97" transform="translate(875.594,-62.1072)"><title>Sheet.1147</title><desc>Apply Level 3 APP data protection</desc><rect width="103.521" height="40.081" x="0" y="545.765" class="st18"/><text x="8" y="561.19" class="st19">Apply Level 3 APP <tspan x="8" class="st7" dy="1.1em">data protection</tspan></text></g></a><a xlink:href="https://learn.microsoft.com/microsoft-365/security/office-365-security/identity-access-policies#app-protection-policies"><g id="shape1148-101" transform="translate(875.594,-325.607)"><title>Sheet.1148</title><desc>Apply Level 2 App Protection Policies (APP) data protection (...</desc><rect width="103.521" height="65" x="0" y="520.846" class="st21"/><text x="8" y="536.27" class="st19">Apply Level 2 App <tspan x="8" class="st7" dy="1.1em">Protection Policies </tspan><tspan x="8" class="st7" dy="1.1em">(APP) data protection </tspan><tspan x="8" class="st7" dy="1.1em">(one for each </tspan><tspan x="8" class="st7" dy="1.1em">platform)</tspan></text></g></a><a xlink:href="https://learn.microsoft.com/microsoft-365/enterprise/identity-access-policies#require-compliant-pcs-and-mobile-devices"><g id="shape1149-108" transform="translate(521.258,-62.1072)"><title>Sheet.1149</title><desc>Require compliant PCs and mobile devices This policy enforces...</desc><rect width="103.521" height="230.928" x="0" y="354.918" class="st21"/><text x="8" y="370.34" class="st19">Require compliant <tspan x="8" class="st7" dy="1.1em">PCs and mobile </tspan><tspan x="8" class="st7" dy="1.1em">devices</tspan><tspan x="8" class="st7" dy="3.089em">This policy enforces </tspan><tspan x="8" class="st7" dy="1.1em">Intune management </tspan><tspan x="8" class="st7" dy="1.1em">for PCs, phones, and </tspan><tspan x="8" class="st7" dy="1.1em">tablets.</tspan></text></g></a><a xlink:href="https://learn.microsoft.com/azure/active-directory/conditional-access/howto-conditional-access-policy-block-legacy"><g id="shape1150-117" transform="translate(408.421,-62.1072)"><title>Sheet.1150</title><desc>Block clients that don’t support modern authentication Client...</desc><rect width="103.521" height="391.5" x="0" y="194.346" class="st22"/><text x="8" y="209.77" class="st19">Block clients that <tspan x="8" class="st7" dy="1.1em">don</tspan>’t support <tspan x="8" class="st7" dy="1.1em">modern </tspan><tspan x="8" class="st7" dy="1.1em">authentication </tspan><tspan x="8" class="st7" dy="2.644em">Clients that do not </tspan><tspan x="8" class="st7" dy="1.1em">use modern </tspan><tspan x="8" class="st7" dy="1.1em">authentication can </tspan><tspan x="8" class="st7" dy="1.1em">bypass Conditional </tspan><tspan x="8" class="st7" dy="1.1em">Access policies.</tspan></text></g></a><g id="shape1151-128" transform="translate(932.902,263.864) rotate(90)"><title>Sheet.1151</title><path d="M0 585.85 L225 585.85" class="st23"/></g><a xlink:href="https://learn.microsoft.com/microsoft-365/security/office-365-security/identity-access-policies#app-protection-policies"><g id="shape1152-131" transform="translate(295.296,-203.857)"><title>Sheet.1152</title><desc>Require approved apps</desc><rect width="103.521" height="36" x="0" y="549.846" class="st18"/><text x="8" y="565.27" class="st19">Require <tspan x="8" class="st7" dy="1.1em">approved apps</tspan></text></g></a><a xlink:href="https://learn.microsoft.com/microsoft-365/security/office-365-security/identity-access-policies#app-protection-policies"><g id="shape1153-135" transform="translate(295.296,-319.679)"><title>Sheet.1153</title><desc>Require approved apps This policy enforces mobile app protect...</desc><rect width="103.521" height="70.929" x="0" y="514.918" class="st21"/><text x="8" y="526.11" class="st19">Require approved <tspan x="8" class="st7" dy="1.1em">apps</tspan><tspan x="8" class="st7" dy="1.544em">This policy enforces </tspan><tspan x="8" class="st7" dy="1.1em">mobile app </tspan><tspan x="8" class="st7" dy="1.1em">protection for phones </tspan><tspan x="8" class="st7" dy="1.1em">&amp; tablets.</tspan></text></g></a><a xlink:href="https://docs.microsoft.com/microsoft-365/enterprise/identity-access-policies?view=o365-worldwide#require-mfa-based-on-sign-in-risk"><g id="shape1154-143" transform="translate(181.968,-206.107)"><title>Sheet.1154</title><desc>Require MFA when sign-in risk is low, medium, or high</desc><rect width="104.035" height="84.793" x="0" y="501.053" class="st22"/><text x="8" y="516.48" class="st19">Require MFA when <tspan x="8" class="st7" dy="1.1em">sign</tspan>-in risk is low, <tspan x="8" class="st7" dy="1.1em">medium, or high</tspan></text></g></a><a xlink:href="https://docs.microsoft.com/microsoft-365/enterprise/identity-access-policies#require-mfa-based-on-sign-in-risk"><g id="shape1155-148" transform="translate(181.968,-323.107)"><title>Sheet.1155</title><desc>Require multifactor authentication (MFA) when sign-in risk is...</desc><rect width="104.035" height="130.5" x="0" y="455.346" class="st22"/><text x="8" y="470.77" class="st19">Require multifactor <tspan x="8" class="st7" dy="1.1em">authentication (MFA) </tspan><tspan x="8" class="st7" dy="1.1em">when sign</tspan>-in risk is <tspan x="8" class="st24" dy="1.1em">medium</tspan> or <tspan class="st24">high</tspan></text></g></a><a xlink:href="https://learn.microsoft.com/microsoft-365/enterprise/identity-access-policies#require-mfa-based-on-sign-in-risk"><g id="shape1156-155" transform="translate(181.968,-62.1072)"><title>Sheet.1156</title><desc>Require MFA always This is also available for all Office 365 ...</desc><rect width="104.035" height="90.871" x="0" y="494.975" class="st22"/><text x="8" y="510.4" class="st19">Require MFA <tspan class="st24">always</tspan><tspan x="8" class="st7" dy="2.2em">This is also available </tspan><tspan x="8" class="st7" dy="1.1em">for all Office 365 </tspan><tspan x="8" class="st7" dy="1.1em">Enterprise plans.</tspan></text></g></a><g id="shape1157-162" transform="translate(270.226,-329.844)"><title>Sheet.1157</title><ellipse cx="4.477" cy="581.36" class="st25" rx="4.477" ry="4.486"/></g><g id="shape1158-164" transform="translate(270.226,-212.898)"><title>Sheet.1158</title><ellipse cx="4.477" cy="581.36" class="st25" rx="4.477" ry="4.486"/></g><g id="shape1159-166" transform="translate(735.224,-68.8711)"><title>Sheet.1159</title><ellipse cx="4.477" cy="581.36" class="st25" rx="4.477" ry="4.486"/></g><g id="shape1160-168" transform="translate(17.2129,-218.939)"><title>Sheet.1160</title><desc>Enterprise (Recommended for Zero Trust)</desc><rect width="88.142" height="45.669" x="0" y="540.177" class="st8"/><text x="0" y="556" class="st10">Enterprise<tspan x="0" class="st11" dy="1.169em">(</tspan><tspan class="st12">Recommended for </tspan><tspan x="0" class="st12" dy="1.256em">Zero Trust)</tspan></text></g><g id="shape1161-174" transform="translate(259.116,-22.49)"><title>Sheet.1161</title><desc>March 2024</desc><rect width="720" height="16.313" x="0" y="569.534" class="st4"/><text x="653.45" y="584.33" class="st26">March 2024</text></g><g id="shape1162-177" transform="translate(17.2129,-26.6786)"><title>Sheet.1162</title><desc>PCs include devices running the Windows or macOS platforms</desc><rect width="290.213" height="20" x="0" y="565.846" class="st4"/><text x="4" y="578.55" class="st27">PCs<tspan class="st28"> </tspan><tspan class="st28">include devices running the Windows or macOS platforms</tspan></text></g><g id="shape1163-182" transform="translate(17.2129,-11.1786)"><title>Sheet.1163</title><desc>Phones and tablets include devices running the iOS, iPadOS, o...</desc><rect width="389.213" height="20" x="0" y="565.846" class="st4"/><text x="4" y="578.55" class="st27">Phones and tablets<tspan class="st28"> </tspan><tspan class="st28">include devices running the iOS, iPadOS, or Android platforms</tspan></text></g><g id="shape1164-187" transform="translate(516.784,-36.255)"><title>Sheet.1164</title><ellipse cx="4.463" cy="581.373" class="st25" rx="4.463" ry="4.473"/></g><g id="shape1165-189" transform="translate(534.729,-14.6028)"><title>Sheet.1165</title><desc>Requires Microsoft 365 E5, Microsoft 365 E3 with the E5 Ident...</desc><rect width="234" height="30.652" x="0" y="555.194" class="st8"/><text x="0" y="563.29" class="st19">Requires Microsoft 365 E5, Microsoft 365 E3 with the E5 <tspan x="0" class="st7" dy="1.2em">Identity add</tspan>-on, Office 365 with EMS E5, or individual <tspan x="0" class="st7" dy="1.2em">Microsoft Entra ID P2 licenses</tspan></text></g><a xlink:href="https://learn.microsoft.com/microsoft-365/enterprise/identity-access-policies#app-protection-policies"><g id="shape1166-194" transform="translate(295.296,-62.1072)"><title>Sheet.1166</title><desc>Require approved apps</desc><rect width="103.521" height="40.081" x="0" y="545.765" class="st22"/><text x="8" y="561.19" class="st19">Require <tspan x="8" class="st7" dy="1.1em">approved apps</tspan></text></g></a><g id="shape1169-198" transform="translate(760.533,-188.84)"><title>Sheet.1169</title><rect width="103.5" height="97.875" x="0" y="487.971" class="st29"/></g><g id="shape1170-200" transform="translate(780.434,-174.333)"><title>Dark Grey - 1.1170</title><desc>2</desc><ellipse cx="14.059" cy="571.787" class="st30" rx="14.059" ry="14.059"/><text x="9.5" y="577.19" class="st31">2</text></g><g id="shape1171-203" transform="translate(815.707,-174.333)"><title>Dark Grey - 1.1171</title><desc>3</desc><ellipse cx="14.059" cy="571.787" class="st30" rx="14.059" ry="14.059"/><text x="9.5" y="577.19" class="st31">3</text></g><g id="shape1172-206" transform="translate(624.746,-266.228)"><title>Sheet.1172</title><path d="M0 585.85 L135.79 585.85" class="st32"/></g><g id="shape1173-209" transform="translate(612.447,-252.017)"><title>Dark Grey - 1.1173</title><desc>4</desc><ellipse cx="14.059" cy="571.787" class="st30" rx="14.059" ry="14.059"/><text x="9.5" y="577.19" class="st31">4</text></g><g id="shape1174-212" transform="translate(416.784,-338.804)"><title>Sheet.1174</title><rect width="81" height="54" x="0" y="531.846" class="st33"/></g><g id="shape1311-214" transform="translate(646.284,-354.25)"><title>Sheet.1311</title><rect width="94.5" height="70.929" x="0" y="514.918" class="st33"/></g><g id="shape1167-216" transform="translate(398.784,-360.965)"><title>Sheet.1167</title><path d="M0 585.85 L476.78 585.85" class="st32"/></g><g id="shape1168-219" transform="translate(820.444,-346.906)"><title>Dark Grey - 1.1168</title><desc>1</desc><ellipse cx="14.059" cy="571.787" class="st30" rx="14.059" ry="14.059"/><text x="9.5" y="577.19" class="st31">1</text></g></g></svg>