<svg xmlns="http://www.w3.org/2000/svg" xmlns:ev="http://www.w3.org/2001/xml-events" xmlns:xlink="http://www.w3.org/1999/xlink" width="1331.165" height="781.128" class="st30" color-interpolation-filters="sRGB" viewBox="0 0 998.375 585.846" xml:space="preserve"><style type="text/css">.st1,.st2{fill:#fff;stroke:none;stroke-width:.25}.st2{fill:#f2f2f2;stroke-linecap:round;stroke-linejoin:round;stroke-width:.75}.st3{stroke:#bfbfbf;stroke-width:1}.st4{fill:none;stroke:none;stroke-width:.25}.st5{fill:#0078d4;stroke:#0078d4;stroke-width:1}.st6{fill:#fff;font-family:Segoe UI Semibold;font-size:1.16666em}.st7{font-size:1em}.st8{fill:none;stroke:none;stroke-linecap:round;stroke-linejoin:round;stroke-width:.75}.st10,.st9{font-family:Segoe UI Semibold}.st9{fill:#0078d4;font-size:1.16666em}.st10{fill:#000;font-size:1.00001em}.st11,.st12{font-size:.749994em}.st12{font-family:Calibri}.st13{fill:#0070c0;font-family:Segoe UI Semibold;font-size:1.16666em}.st14{fill:#0078d4;stroke:none;stroke-width:1}.st15,.st16{fill:#fff;font-family:Segoe UI Semibold;font-size:1.99999em}.st16{font-size:1.00001em}.st17{fill:#4672c4;font-family:Segoe UI;font-size:.75em}.st18{fill:#c4e6f7;stroke:none;stroke-width:2}.st19{fill:#000;font-family:Segoe UI;font-size:.75em}.st20{stroke:#c4e6f7;stroke-width:6}.st21,.st22{fill:#c4e6f7;stroke:red;stroke-width:2}.st22{stroke:none;stroke-width:2.25}.st23{stroke:#c4e6f7;stroke-linecap:round;stroke-linejoin:round;stroke-width:6}.st24{font-size:1em;font-style:italic}.st25{fill:#149c14;stroke:none;stroke-linecap:round;stroke-linejoin:round;stroke-width:3}.st26,.st27{fill:#4672c4;font-family:Segoe UI;font-size:1.00001em}.st27{font-size:.75em;font-weight:700}.st28{font-size:1em;font-weight:400}.st29{fill:#c4e6f7;fill-opacity:.5;stroke:none;stroke-width:2.25}.st30{fill:none;fill-rule:evenodd;font-size:12px;overflow:visible;stroke-linecap:square;stroke-miterlimit:3}</style><g><title>Page-1</title><g id="shape1314-1" transform="translate(0.25,-0.25)"><title>Sheet.1314</title><rect width="997.875" height="585.346" x="0" y=".5" class="st1"/></g><g id="shape1269-3" transform="translate(14.6274,-189.613)"><title>Sheet.1269</title><rect width="972" height="108" x="0" y="477.846" class="st2"/></g><g id="shape1270-5" transform="translate(101.927,-244.738)"><title>Arrow 1 - gray.1270</title><path d="M0 585.85 L884.7 585.85" class="st3"/></g><g id="shape37-8" transform="translate(124.877,-210.613)"><title>Devices.37</title><rect width="29.617" height="24.791" x="0" y="561.055" class="st4"/><switch><svg width="29.617" height="24.791" x="0" y="561.055" color-interpolation-filters="sRGB" enable-background="new" preserveAspectRatio="none" viewBox="0 -39.008 43.008 36"><defs><clipPath id="mfid64"><rect id="mfid65" width="43.008" height="36" x="0" y="-39.008"/></clipPath></defs><g clip-path="url(#mfid64)"><defs><g id="mfid66"><path d="M125,-118 C87,-118 87,-118 87,-118 C85,-118 84,-117 84,-115 C84,-115 84,-115 84,-115 C84,-44 84,-44 84,-44 C84,-42 85,-41 87,-41 C87,-41 87,-41 87,-41 C125,-41 125,-41 125,-41 C127,-41 128,-42 128,-44 C128,-44 128,-44 128,-44 C128,-115 128,-115 128,-115 C128,-117 127,-118 125,-118 Z M112,-47 C101,-47 101,-47 101,-47 C101,-52 101,-52 101,-52 C112,-52 112,-52 112,-52 Z" transform="matrix(0.33333, 0, 0, 0.33333, 0, 0)"/></g></defs><g><g fill="#939393" stroke="none" stroke-width="3.267" transform="matrix(0.33333, 0, 0, 0.33333, 0, 0)"><use stroke="none" transform="matrix(3, -0, -0, 3, -0, 0)" xlink:href="#mfid66"/></g></g><defs><g id="mfid67"><path d="M76,-44 C76,-90 76,-90 76,-90 C4,-90 4,-90 4,-90 C2,-90 0,-88 0,-86 C0,-14 0,-14 0,-14 C0,-12 2,-10 4,-10 C108,-10 108,-10 108,-10 C110,-10 112,-12 112,-14 C112,-33 112,-33 112,-33 C87,-33 87,-33 87,-33 C81,-33 76,-38 76,-44 Z M64,-18 C48,-18 48,-18 48,-18 C48,-26 48,-26 48,-26 C64,-26 64,-26 64,-26 Z" transform="matrix(0.33333, 0, 0, 0.33333, 0, 0)"/></g></defs><g><g fill="#c2c2c2" stroke="none" stroke-width="3.267" transform="matrix(0.33333, 0, 0, 0.33333, 0, 0)"><use stroke="none" transform="matrix(3, -0, -0, 3, -0, 0)" xlink:href="#mfid67"/></g></g></g></svg></switch><rect width="29.617" height="24.791" x="0" y="561.055" class="st4"/></g><g id="shape38-11" transform="translate(124.877,-255.442)"><title>Monitor / TV.38</title><rect width="29.617" height="22.742" x="0" y="563.104" class="st4"/><switch><svg width="29.617" height="22.742" x="0" y="563.104" color-interpolation-filters="sRGB" enable-background="new" preserveAspectRatio="none" viewBox="0 -38.016 43.008 33.024"><defs><clipPath id="mfid68"><rect id="mfid69" width="43.008" height="33.024" x="0" y="-38.016"/></clipPath></defs><g clip-path="url(#mfid68)"><defs><g id="mfid70"><path d="M128,-37 C128,-110 128,-110 128,-110 C128,-112 126,-114 124,-114 C4,-114 4,-114 4,-114 C2,-114 0,-112 0,-110 C0,-37 0,-37 0,-37 C0,-35 2,-33 4,-33 C59,-33 59,-33 59,-33 C59,-22 59,-22 59,-22 C39,-22 39,-22 39,-22 C39,-14 39,-14 39,-14 C88,-14 88,-14 88,-14 C88,-22 88,-22 88,-22 C68,-22 68,-22 68,-22 C68,-34 68,-34 68,-34 C124,-34 124,-34 124,-34 C126,-34 128,-35 128,-37 Z" transform="matrix(0.33333, 0, 0, 0.33333, 0, 0)"/></g></defs><g><g fill="#c2c2c2" stroke="none" stroke-width="3.267" transform="matrix(0.33333, 0, 0, 0.33333, 0, 0)"><use stroke="none" transform="matrix(3, -0, -0, 3, -0, 0)" xlink:href="#mfid70"/></g></g></g></svg></switch><rect width="29.617" height="22.742" x="0" y="563.104" class="st4"/></g><g id="shape1271-14" transform="translate(178.877,-459.707)"><title>Sheet.1271</title><desc>Microsoft Entra Conditional Access policies</desc><rect width="574.875" height="62.906" x="0" y="522.94" class="st5"/><text x="11.2" y="550.54" class="st6">Microsoft Entra Conditional Access <tspan x="11.2" class="st7" dy="1.1em">policies</tspan></text></g><g id="shape1272-18" transform="translate(20.6274,-475.834)"><title>Sheet.1272</title><desc>Protection level</desc><rect width="88.142" height="30.652" x="0" y="555.194" class="st8"/><text x="0" y="567.79" class="st9">Protection <tspan x="0" class="st7" dy="1.2em">level</tspan></text></g><g id="shape1273-22" transform="translate(20.6274,-377.373)"><title>Sheet.1273</title><desc>Starting point</desc><rect width="88.142" height="30.652" x="0" y="555.194" class="st8"/><text x="0" y="574.12" class="st10">Starting point</text></g><g id="shape1274-25" transform="translate(20.6274,-82.5943)"><title>Sheet.1274</title><desc>Specialized security (only if needed for specific data sets o...</desc><rect width="88.142" height="45.669" x="0" y="540.177" class="st8"/><text x="0" y="544.3" class="st10">Specialized <tspan x="0" class="st7" dy="1.2em">security</tspan><tspan x="0" class="st11" dy="1.169em">(</tspan><tspan class="st12">only if needed for </tspan><tspan x="0" class="st12" dy="1.006em">specific data sets or </tspan><tspan x="0" class="st12" dy="1.25em">users)</tspan></text></g><g id="shape1275-33" transform="translate(115.094,-474.386)"><title>Sheet.1275</title><desc>Device type</desc><rect width="59.284" height="33.548" x="0" y="552.298" class="st8"/><text x="0" y="564.9" class="st13">Device <tspan x="0" class="st7" dy="1.2em">type</tspan></text></g><a xlink:href="https://learn.microsoft.com/microsoft-365/security/office-365-security/microsoft-365-policies-configurations"><g id="shape1276-37" transform="translate(14.6274,-528.694)"><title>Sheet.1276</title><desc>Zero Trust identity and device access policies</desc><rect width="972" height="45.669" x="0" y="540.177" class="st14"/><text x="15.52" y="569.61" class="st15">Zero Trust identity and device access policies</text></g></a><g id="shape1277-40" transform="translate(763.877,-459.613)"><title>Sheet.1277</title><desc>Intune device compliance policy</desc><rect width="103.521" height="62.906" x="0" y="522.94" class="st14"/><text x="11.2" y="544.49" class="st16">Intune device <tspan x="11.2" class="st7" dy="1.1em">compliance </tspan><tspan x="11.2" class="st7" dy="1.1em">policy</tspan></text></g><g id="shape1278-45" transform="translate(879.009,-459.613)"><title>Sheet.1278</title><desc>Intune app protection policies</desc><rect width="107.618" height="62.906" x="0" y="522.94" class="st14"/><text x="11.2" y="544.49" class="st16">Intune app <tspan x="11.2" class="st7" dy="1.1em">protection </tspan><tspan x="11.2" class="st7" dy="1.1em">policies</tspan></text></g><g id="shape1279-50" transform="translate(103.195,-392.7)"><title>Arrow 1 - gray.1279</title><path d="M0 585.85 L883.43 585.85" class="st3"/></g><g id="shape39-53" transform="translate(124.877,-416.621)"><title>Monitor / TV.39</title><rect width="29.617" height="22.742" x="0" y="563.104" class="st4"/><switch><svg width="29.617" height="22.742" x="0" y="563.104" color-interpolation-filters="sRGB" enable-background="new" preserveAspectRatio="none" viewBox="0 -38.016 43.008 33.024"><defs><clipPath id="mfid71"><rect id="mfid72" width="43.008" height="33.024" x="0" y="-38.016"/></clipPath></defs><g clip-path="url(#mfid71)"><defs><g id="mfid73"><path d="M128,-37 C128,-110 128,-110 128,-110 C128,-112 126,-114 124,-114 C4,-114 4,-114 4,-114 C2,-114 0,-112 0,-110 C0,-37 0,-37 0,-37 C0,-35 2,-33 4,-33 C59,-33 59,-33 59,-33 C59,-22 59,-22 59,-22 C39,-22 39,-22 39,-22 C39,-14 39,-14 39,-14 C88,-14 88,-14 88,-14 C88,-22 88,-22 88,-22 C68,-22 68,-22 68,-22 C68,-34 68,-34 68,-34 C124,-34 124,-34 124,-34 C126,-34 128,-35 128,-37 Z" transform="matrix(0.33333, 0, 0, 0.33333, 0, 0)"/></g></defs><g><g fill="#c2c2c2" stroke="none" stroke-width="3.267" transform="matrix(0.33333, 0, 0, 0.33333, 0, 0)"><use stroke="none" transform="matrix(3, -0, -0, 3, -0, 0)" xlink:href="#mfid73"/></g></g></g></svg></switch><rect width="29.617" height="22.742" x="0" y="563.104" class="st4"/></g><g id="shape1280-56" transform="translate(122.664,-397.57)"><title>Sheet.1280</title><desc>PCs</desc><rect width="31.426" height="20" x="0" y="565.846" class="st4"/><text x="8.5" y="578.55" class="st17">PCs</text></g><g id="shape40-59" transform="translate(124.877,-359.105)"><title>Devices.40</title><rect width="29.617" height="24.791" x="0" y="561.055" class="st4"/><switch><svg width="29.617" height="24.791" x="0" y="561.055" color-interpolation-filters="sRGB" enable-background="new" preserveAspectRatio="none" viewBox="0 -39.008 43.008 36"><defs><clipPath id="mfid74"><rect id="mfid75" width="43.008" height="36" x="0" y="-39.008"/></clipPath></defs><g clip-path="url(#mfid74)"><defs><g id="mfid76"><path d="M125,-118 C87,-118 87,-118 87,-118 C85,-118 84,-117 84,-115 C84,-115 84,-115 84,-115 C84,-44 84,-44 84,-44 C84,-42 85,-41 87,-41 C87,-41 87,-41 87,-41 C125,-41 125,-41 125,-41 C127,-41 128,-42 128,-44 C128,-44 128,-44 128,-44 C128,-115 128,-115 128,-115 C128,-117 127,-118 125,-118 Z M112,-47 C101,-47 101,-47 101,-47 C101,-52 101,-52 101,-52 C112,-52 112,-52 112,-52 Z" transform="matrix(0.33333, 0, 0, 0.33333, 0, 0)"/></g></defs><g><g fill="#939393" stroke="none" stroke-width="3.267" transform="matrix(0.33333, 0, 0, 0.33333, 0, 0)"><use stroke="none" transform="matrix(3, -0, -0, 3, -0, 0)" xlink:href="#mfid76"/></g></g><defs><g id="mfid77"><path d="M76,-44 C76,-90 76,-90 76,-90 C4,-90 4,-90 4,-90 C2,-90 0,-88 0,-86 C0,-14 0,-14 0,-14 C0,-12 2,-10 4,-10 C108,-10 108,-10 108,-10 C110,-10 112,-12 112,-14 C112,-33 112,-33 112,-33 C87,-33 87,-33 87,-33 C81,-33 76,-38 76,-44 Z M64,-18 C48,-18 48,-18 48,-18 C48,-26 48,-26 48,-26 C64,-26 64,-26 64,-26 Z" transform="matrix(0.33333, 0, 0, 0.33333, 0, 0)"/></g></defs><g><g fill="#c2c2c2" stroke="none" stroke-width="3.267" transform="matrix(0.33333, 0, 0, 0.33333, 0, 0)"><use stroke="none" transform="matrix(3, -0, -0, 3, -0, 0)" xlink:href="#mfid77"/></g></g></g></svg></switch><rect width="29.617" height="24.791" x="0" y="561.055" class="st4"/></g><g id="shape1281-62" transform="translate(104.627,-337.32)"><title>Sheet.1281</title><desc>Phones and tablets</desc><rect width="68.284" height="20" x="0" y="565.846" class="st4"/><text x="10.91" y="573.15" class="st17">Phones and <tspan x="20.8" class="st7" dy="1.2em">tablets</tspan></text></g><g id="shape1282-66" transform="translate(102.35,-105.43)"><title>Arrow 1 - gray.1282</title><path d="M0 585.85 L884.28 585.85" class="st3"/></g><g id="shape41-69" transform="translate(125.693,-72.6131)"><title>Devices.41</title><rect width="29.617" height="24.791" x="0" y="561.055" class="st4"/><switch><svg width="29.617" height="24.791" x="0" y="561.055" color-interpolation-filters="sRGB" enable-background="new" preserveAspectRatio="none" viewBox="0 -39.008 43.008 36"><defs><clipPath id="mfid78"><rect id="mfid79" width="43.008" height="36" x="0" y="-39.008"/></clipPath></defs><g clip-path="url(#mfid78)"><defs><g id="mfid80"><path d="M125,-118 C87,-118 87,-118 87,-118 C85,-118 84,-117 84,-115 C84,-115 84,-115 84,-115 C84,-44 84,-44 84,-44 C84,-42 85,-41 87,-41 C87,-41 87,-41 87,-41 C125,-41 125,-41 125,-41 C127,-41 128,-42 128,-44 C128,-44 128,-44 128,-44 C128,-115 128,-115 128,-115 C128,-117 127,-118 125,-118 Z M112,-47 C101,-47 101,-47 101,-47 C101,-52 101,-52 101,-52 C112,-52 112,-52 112,-52 Z" transform="matrix(0.33333, 0, 0, 0.33333, 0, 0)"/></g></defs><g><g fill="#939393" stroke="none" stroke-width="3.267" transform="matrix(0.33333, 0, 0, 0.33333, 0, 0)"><use stroke="none" transform="matrix(3, -0, -0, 3, -0, 0)" xlink:href="#mfid80"/></g></g><defs><g id="mfid81"><path d="M76,-44 C76,-90 76,-90 76,-90 C4,-90 4,-90 4,-90 C2,-90 0,-88 0,-86 C0,-14 0,-14 0,-14 C0,-12 2,-10 4,-10 C108,-10 108,-10 108,-10 C110,-10 112,-12 112,-14 C112,-33 112,-33 112,-33 C87,-33 87,-33 87,-33 C81,-33 76,-38 76,-44 Z M64,-18 C48,-18 48,-18 48,-18 C48,-26 48,-26 48,-26 C64,-26 64,-26 64,-26 Z" transform="matrix(0.33333, 0, 0, 0.33333, 0, 0)"/></g></defs><g><g fill="#c2c2c2" stroke="none" stroke-width="3.267" transform="matrix(0.33333, 0, 0, 0.33333, 0, 0)"><use stroke="none" transform="matrix(3, -0, -0, 3, -0, 0)" xlink:href="#mfid81"/></g></g></g></svg></switch><rect width="29.617" height="24.791" x="0" y="561.055" class="st4"/></g><g id="shape42-72" transform="translate(125.693,-114.593)"><title>Monitor / TV.42</title><rect width="29.617" height="22.742" x="0" y="563.104" class="st4"/><switch><svg width="29.617" height="22.742" x="0" y="563.104" color-interpolation-filters="sRGB" enable-background="new" preserveAspectRatio="none" viewBox="0 -38.016 43.008 33.024"><defs><clipPath id="mfid82"><rect id="mfid83" width="43.008" height="33.024" x="0" y="-38.016"/></clipPath></defs><g clip-path="url(#mfid82)"><defs><g id="mfid84"><path d="M128,-37 C128,-110 128,-110 128,-110 C128,-112 126,-114 124,-114 C4,-114 4,-114 4,-114 C2,-114 0,-112 0,-110 C0,-37 0,-37 0,-37 C0,-35 2,-33 4,-33 C59,-33 59,-33 59,-33 C59,-22 59,-22 59,-22 C39,-22 39,-22 39,-22 C39,-14 39,-14 39,-14 C88,-14 88,-14 88,-14 C88,-22 88,-22 88,-22 C68,-22 68,-22 68,-22 C68,-34 68,-34 68,-34 C124,-34 124,-34 124,-34 C126,-34 128,-35 128,-37 Z" transform="matrix(0.33333, 0, 0, 0.33333, 0, 0)"/></g></defs><g><g fill="#c2c2c2" stroke="none" stroke-width="3.267" transform="matrix(0.33333, 0, 0, 0.33333, 0, 0)"><use stroke="none" transform="matrix(3, -0, -0, 3, -0, 0)" xlink:href="#mfid84"/></g></g></g></svg></switch><rect width="29.617" height="22.742" x="0" y="563.104" class="st4"/></g><a xlink:href="https://learn.microsoft.com/microsoft-365/security/office-365-security/identity-access-policies#device-compliance-policies"><g id="shape1283-75" transform="translate(763.877,-59.1131)"><title>Sheet.1283</title><desc>Define compliance policies (one for each platform)</desc><rect width="103.521" height="228.759" x="0" y="357.087" class="st18"/><text x="8" y="372.51" class="st19">Define compliance <tspan x="8" class="st7" dy="1.1em">policies (one for </tspan><tspan x="8" class="st7" dy="1.1em">each platform)</tspan></text></g></a><a xlink:href="https://learn.microsoft.com/microsoft-365/enterprise/identity-access-policies#high-risk-users-must-change-password"><g id="shape1284-80" transform="translate(642.864,-59.1131)"><title>Sheet.1284</title><desc>High risk users must change password This policy forces users...</desc><rect width="111.595" height="391.5" x="0" y="194.346" class="st18"/><text x="8" y="209.77" class="st19">High risk users must <tspan x="8" class="st7" dy="1.1em">change password</tspan><tspan x="8" class="st7" dy="2.2em">This policy forces users </tspan><tspan x="8" class="st7" dy="1.1em">to change their </tspan><tspan x="8" class="st7" dy="1.1em">password when signing </tspan><tspan x="8" class="st7" dy="1.1em">in if high risk activity is </tspan><tspan x="8" class="st7" dy="1.1em">detected for their </tspan><tspan x="8" class="st7" dy="1.1em">account.</tspan></text></g></a><g id="shape1285-90" transform="translate(1516.62,263.233) rotate(90)"><title>Sheet.1285</title><path d="M0 585.85 L83 585.85" class="st20"/></g><a xlink:href="https://learn.microsoft.com/microsoft-365/security/office-365-security/identity-access-policies#app-protection-policies"><g id="shape1286-93" transform="translate(879.009,-200.863)"><title>Sheet.1286</title><desc>Apply Level 2 APP data protection</desc><rect width="103.521" height="36" x="0" y="549.846" class="st18"/><text x="8" y="565.27" class="st19">Apply Level 2 APP <tspan x="8" class="st7" dy="1.1em">data protection</tspan></text></g></a><a xlink:href="https://learn.microsoft.com/microsoft-365/security/office-365-security/identity-access-policies#app-protection-policies"><g id="shape1287-97" transform="translate(879.009,-59.1131)"><title>Sheet.1287</title><desc>Apply Level 3 APP data protection</desc><rect width="103.521" height="40.081" x="0" y="545.765" class="st18"/><text x="8" y="561.19" class="st19">Apply Level 3 APP <tspan x="8" class="st7" dy="1.1em">data protection</tspan></text></g></a><a xlink:href="https://learn.microsoft.com/microsoft-365/security/office-365-security/identity-access-policies#app-protection-policies"><g id="shape1288-101" transform="translate(879.009,-322.613)"><title>Sheet.1288</title><desc>Apply Level 2 App Protection Policies (APP) data protection (...</desc><rect width="103.521" height="65" x="0" y="520.846" class="st18"/><text x="8" y="536.27" class="st19">Apply Level 2 App <tspan x="8" class="st7" dy="1.1em">Protection Policies </tspan><tspan x="8" class="st7" dy="1.1em">(APP) data protection </tspan><tspan x="8" class="st7" dy="1.1em">(one for each </tspan><tspan x="8" class="st7" dy="1.1em">platform)</tspan></text></g></a><a xlink:href="https://learn.microsoft.com/microsoft-365/enterprise/identity-access-policies#require-compliant-pcs-and-mobile-devices"><g id="shape1289-108" transform="translate(524.672,-59.1131)"><title>Sheet.1289</title><desc>Require compliant PCs and mobile devices This policy enforces...</desc><rect width="103.521" height="230.928" x="0" y="354.918" class="st21"/><text x="8" y="370.34" class="st19">Require compliant <tspan x="8" class="st7" dy="1.1em">PCs and mobile </tspan><tspan x="8" class="st7" dy="1.1em">devices</tspan><tspan x="8" class="st7" dy="3.089em">This policy enforces </tspan><tspan x="8" class="st7" dy="1.1em">Intune management </tspan><tspan x="8" class="st7" dy="1.1em">for PCs, phones, and </tspan><tspan x="8" class="st7" dy="1.1em">tablets.</tspan></text></g></a><a xlink:href="https://learn.microsoft.com/azure/active-directory/conditional-access/howto-conditional-access-policy-block-legacy"><g id="shape1290-117" transform="translate(411.835,-59.1131)"><title>Sheet.1290</title><desc>Block clients that don’t support modern authentication Client...</desc><rect width="103.521" height="391.5" x="0" y="194.346" class="st22"/><text x="8" y="209.77" class="st19">Block clients that <tspan x="8" class="st7" dy="1.1em">don</tspan>’t support <tspan x="8" class="st7" dy="1.1em">modern </tspan><tspan x="8" class="st7" dy="1.1em">authentication </tspan><tspan x="8" class="st7" dy="2.644em">Clients that do not </tspan><tspan x="8" class="st7" dy="1.1em">use modern </tspan><tspan x="8" class="st7" dy="1.1em">authentication can </tspan><tspan x="8" class="st7" dy="1.1em">bypass Conditional </tspan><tspan x="8" class="st7" dy="1.1em">Access policies.</tspan></text></g></a><g id="shape1291-128" transform="translate(936.317,266.858) rotate(90)"><title>Sheet.1291</title><path d="M0 585.85 L225 585.85" class="st23"/></g><a xlink:href="https://learn.microsoft.com/microsoft-365/security/office-365-security/identity-access-policies#app-protection-policies"><g id="shape1292-131" transform="translate(298.71,-200.863)"><title>Sheet.1292</title><desc>Require approved apps</desc><rect width="103.521" height="36" x="0" y="549.846" class="st18"/><text x="8" y="565.27" class="st19">Require <tspan x="8" class="st7" dy="1.1em">approved apps</tspan></text></g></a><a xlink:href="https://learn.microsoft.com/microsoft-365/security/office-365-security/identity-access-policies#app-protection-policies"><g id="shape1293-135" transform="translate(298.71,-316.685)"><title>Sheet.1293</title><desc>Require approved apps This policy enforces mobile app protect...</desc><rect width="103.521" height="70.929" x="0" y="514.918" class="st18"/><text x="8" y="526.11" class="st19">Require approved <tspan x="8" class="st7" dy="1.1em">apps</tspan><tspan x="8" class="st7" dy="1.544em">This policy enforces </tspan><tspan x="8" class="st7" dy="1.1em">mobile app </tspan><tspan x="8" class="st7" dy="1.1em">protection for phones </tspan><tspan x="8" class="st7" dy="1.1em">&amp; tablets.</tspan></text></g></a><a xlink:href="https://docs.microsoft.com/microsoft-365/enterprise/identity-access-policies?view=o365-worldwide#require-mfa-based-on-sign-in-risk"><g id="shape1294-143" transform="translate(185.383,-203.113)"><title>Sheet.1294</title><desc>Require MFA when sign-in risk is low, medium, or high</desc><rect width="104.035" height="84.793" x="0" y="501.053" class="st22"/><text x="8" y="516.48" class="st19">Require MFA when <tspan x="8" class="st7" dy="1.1em">sign</tspan>-in risk is low, <tspan x="8" class="st7" dy="1.1em">medium, or high</tspan></text></g></a><a xlink:href="https://docs.microsoft.com/microsoft-365/enterprise/identity-access-policies#require-mfa-based-on-sign-in-risk"><g id="shape1295-148" transform="translate(185.383,-320.113)"><title>Sheet.1295</title><desc>Require multifactor authentication (MFA) when sign-in risk is...</desc><rect width="104.035" height="130.5" x="0" y="455.346" class="st22"/><text x="8" y="470.77" class="st19">Require multifactor <tspan x="8" class="st7" dy="1.1em">authentication (MFA) </tspan><tspan x="8" class="st7" dy="1.1em">when sign</tspan>-in risk is <tspan x="8" class="st24" dy="1.1em">medium</tspan> or <tspan class="st24">high</tspan></text></g></a><a xlink:href="https://learn.microsoft.com/microsoft-365/enterprise/identity-access-policies#require-mfa-based-on-sign-in-risk"><g id="shape1296-155" transform="translate(185.383,-59.1131)"><title>Sheet.1296</title><desc>Require MFA always This is also available for all Office 365 ...</desc><rect width="104.035" height="90.871" x="0" y="494.975" class="st22"/><text x="8" y="510.4" class="st19">Require MFA <tspan class="st24">always</tspan><tspan x="8" class="st7" dy="2.2em">This is also available </tspan><tspan x="8" class="st7" dy="1.1em">for all Office 365 </tspan><tspan x="8" class="st7" dy="1.1em">Enterprise plans.</tspan></text></g></a><g id="shape1297-162" transform="translate(273.641,-326.85)"><title>Sheet.1297</title><ellipse cx="4.477" cy="581.36" class="st25" rx="4.477" ry="4.486"/></g><g id="shape1298-164" transform="translate(273.641,-209.904)"><title>Sheet.1298</title><ellipse cx="4.477" cy="581.36" class="st25" rx="4.477" ry="4.486"/></g><g id="shape1299-166" transform="translate(738.639,-65.877)"><title>Sheet.1299</title><ellipse cx="4.477" cy="581.36" class="st25" rx="4.477" ry="4.486"/></g><g id="shape1300-168" transform="translate(20.6274,-215.944)"><title>Sheet.1300</title><desc>Enterprise (Recommended for Zero Trust)</desc><rect width="88.142" height="45.669" x="0" y="540.177" class="st8"/><text x="0" y="556" class="st10">Enterprise<tspan x="0" class="st11" dy="1.169em">(</tspan><tspan class="st12">Recommended for </tspan><tspan x="0" class="st12" dy="1.256em">Zero Trust)</tspan></text></g><g id="shape1301-174" transform="translate(262.53,-19.4959)"><title>Sheet.1301</title><desc>March 2024</desc><rect width="720" height="16.313" x="0" y="569.534" class="st4"/><text x="653.45" y="584.33" class="st26">March 2024</text></g><g id="shape1302-177" transform="translate(20.6274,-23.6845)"><title>Sheet.1302</title><desc>PCs include devices running the Windows or macOS platforms</desc><rect width="290.213" height="20" x="0" y="565.846" class="st4"/><text x="4" y="578.55" class="st27">PCs<tspan class="st28"> </tspan><tspan class="st28">include devices running the Windows or macOS platforms</tspan></text></g><g id="shape1303-182" transform="translate(20.6274,-8.18451)"><title>Sheet.1303</title><desc>Phones and tablets include devices running the iOS, iPadOS, o...</desc><rect width="389.213" height="20" x="0" y="565.846" class="st4"/><text x="4" y="578.55" class="st27">Phones and tablets<tspan class="st28"> </tspan><tspan class="st28">include devices running the iOS, iPadOS, or Android platforms</tspan></text></g><g id="shape1304-187" transform="translate(520.199,-33.2609)"><title>Sheet.1304</title><ellipse cx="4.463" cy="581.373" class="st25" rx="4.463" ry="4.473"/></g><g id="shape1305-189" transform="translate(538.144,-11.6087)"><title>Sheet.1305</title><desc>Requires Microsoft 365 E5, Microsoft 365 E3 with the E5 Ident...</desc><rect width="234" height="30.652" x="0" y="555.194" class="st8"/><text x="0" y="563.29" class="st19">Requires Microsoft 365 E5, Microsoft 365 E3 with the E5 <tspan x="0" class="st7" dy="1.2em">Identity add</tspan>-on, Office 365 with EMS E5, or individual <tspan x="0" class="st7" dy="1.2em">Microsoft Entra ID P2 licenses</tspan></text></g><a xlink:href="https://learn.microsoft.com/microsoft-365/enterprise/identity-access-policies#app-protection-policies"><g id="shape1306-194" transform="translate(298.71,-59.1131)"><title>Sheet.1306</title><desc>Require approved apps</desc><rect width="103.521" height="40.081" x="0" y="545.765" class="st22"/><text x="8" y="561.19" class="st19">Require <tspan x="8" class="st7" dy="1.1em">approved apps</tspan></text></g></a><g id="shape1308-198" transform="translate(420.199,-335.81)"><title>Sheet.1308</title><rect width="81" height="54" x="0" y="531.846" class="st29"/></g></g></svg>