<svg xmlns="http://www.w3.org/2000/svg" xmlns:ev="http://www.w3.org/2001/xml-events" xmlns:xlink="http://www.w3.org/1999/xlink" width="1323.667" height="788" class="st27" color-interpolation-filters="sRGB" viewBox="0 0 992.75 591" xml:space="preserve"><title>Zero Trust deployment plan with Microsoft 365</title><style type="text/css">.st1,.st2{fill:#fff;stroke:none;stroke-linecap:round;stroke-linejoin:round;stroke-width:.75}.st2{fill:#f2f2f2}.st3{stroke:#bfbfbf;stroke-width:1}.st4{fill:none;stroke:none;stroke-linecap:round;stroke-linejoin:round;stroke-width:.75}.st5{fill:#0078d4;stroke:#0078d4;stroke-width:1}.st6{fill:#fff;font-family:Segoe UI Semibold;font-size:1.16666em}.st7{font-size:1em}.st8,.st9{fill:#0078d4;font-family:Segoe UI Semibold;font-size:1.16666em}.st9{fill:#000;font-size:1.00001em}.st10,.st11{font-size:.749994em}.st11{font-family:Calibri}.st12{fill:#0070c0;font-family:Segoe UI Semibold;font-size:1.16666em}.st13{fill:#0078d4;stroke:none;stroke-width:1}.st14,.st15{fill:#fff;font-family:Segoe UI Semibold;font-size:1.99999em}.st15{font-size:1.00001em}.st16{fill:#000;font-family:Segoe UI;font-size:.75em}.st17{fill:#c4e6f7;stroke:none;stroke-linecap:round;stroke-linejoin:round;stroke-width:2}.st18{stroke:#c4e6f7;stroke-width:6}.st19{fill:#c4e6f7;stroke:none;stroke-linecap:round;stroke-linejoin:round;stroke-width:2.25}.st20{font-size:1em;font-style:italic}.st21,.st22{stroke:#c4e6f7;stroke-linecap:round;stroke-linejoin:round;stroke-width:6}.st22{fill:#149c14;stroke:none;stroke-width:3}.st23,.st24{fill:#000;font-family:Segoe UI;font-size:1.00001em}.st24{font-size:.75em;font-weight:700}.st25{font-size:1em;font-weight:400}.st26{fill:none;stroke:red;stroke-linecap:round;stroke-linejoin:round;stroke-width:2.25}.st27{fill:none;fill-rule:evenodd;font-size:12px;overflow:visible;stroke-linecap:square;stroke-miterlimit:3}</style><g><title>Page-1</title><g id="shape1494-1" transform="translate(0.375,-0.375)"><title>Sheet.1494</title><rect width="992" height="590.25" x="0" y=".75" class="st1"/></g><g id="shape1495-3" transform="translate(8.80357,-195.429)"><title>Sheet.1495</title><rect width="972" height="108" x="0" y="483" class="st2"/></g><g id="shape1496-5" transform="translate(96.1036,-250.554)"><title>Arrow 1 - gray.1496</title><path d="M0 591 L884.7 591" class="st3"/></g><g id="shape32-8" transform="translate(119.054,-216.429)"><title>Devices.32</title><rect width="29.617" height="24.791" x="0" y="566.209" class="st4"/><switch><svg width="29.617" height="24.791" x="0" y="566.209" color-interpolation-filters="sRGB" enable-background="new" preserveAspectRatio="none" viewBox="0 -39.008 43.008 36"><defs><clipPath id="mfid22"><rect id="mfid23" width="43.008" height="36" x="0" y="-39.008"/></clipPath></defs><g clip-path="url(#mfid22)"><defs><g id="mfid24"><path d="M125,-118 C87,-118 87,-118 87,-118 C85,-118 84,-117 84,-115 C84,-115 84,-115 84,-115 C84,-44 84,-44 84,-44 C84,-42 85,-41 87,-41 C87,-41 87,-41 87,-41 C125,-41 125,-41 125,-41 C127,-41 128,-42 128,-44 C128,-44 128,-44 128,-44 C128,-115 128,-115 128,-115 C128,-117 127,-118 125,-118 Z M112,-47 C101,-47 101,-47 101,-47 C101,-52 101,-52 101,-52 C112,-52 112,-52 112,-52 Z" transform="matrix(0.33333, 0, 0, 0.33333, 0, 0)"/></g></defs><g><g fill="#939393" stroke="none" stroke-width="3.267" transform="matrix(0.33333, 0, 0, 0.33333, 0, 0)"><use stroke="none" transform="matrix(3, -0, -0, 3, -0, 0)" xlink:href="#mfid24"/></g></g><defs><g id="mfid25"><path d="M76,-44 C76,-90 76,-90 76,-90 C4,-90 4,-90 4,-90 C2,-90 0,-88 0,-86 C0,-14 0,-14 0,-14 C0,-12 2,-10 4,-10 C108,-10 108,-10 108,-10 C110,-10 112,-12 112,-14 C112,-33 112,-33 112,-33 C87,-33 87,-33 87,-33 C81,-33 76,-38 76,-44 Z M64,-18 C48,-18 48,-18 48,-18 C48,-26 48,-26 48,-26 C64,-26 64,-26 64,-26 Z" transform="matrix(0.33333, 0, 0, 0.33333, 0, 0)"/></g></defs><g><g fill="#c2c2c2" stroke="none" stroke-width="3.267" transform="matrix(0.33333, 0, 0, 0.33333, 0, 0)"><use stroke="none" transform="matrix(3, -0, -0, 3, -0, 0)" xlink:href="#mfid25"/></g></g></g></svg></switch><rect width="29.617" height="24.791" x="0" y="566.209" class="st4"/></g><g id="shape33-11" transform="translate(119.054,-261.258)"><title>Monitor / TV.33</title><rect width="29.617" height="22.742" x="0" y="568.258" class="st4"/><switch><svg width="29.617" height="22.742" x="0" y="568.258" color-interpolation-filters="sRGB" enable-background="new" preserveAspectRatio="none" viewBox="0 -38.016 43.008 33.024"><defs><clipPath id="mfid26"><rect id="mfid27" width="43.008" height="33.024" x="0" y="-38.016"/></clipPath></defs><g clip-path="url(#mfid26)"><defs><g id="mfid28"><path d="M128,-37 C128,-110 128,-110 128,-110 C128,-112 126,-114 124,-114 C4,-114 4,-114 4,-114 C2,-114 0,-112 0,-110 C0,-37 0,-37 0,-37 C0,-35 2,-33 4,-33 C59,-33 59,-33 59,-33 C59,-22 59,-22 59,-22 C39,-22 39,-22 39,-22 C39,-14 39,-14 39,-14 C88,-14 88,-14 88,-14 C88,-22 88,-22 88,-22 C68,-22 68,-22 68,-22 C68,-34 68,-34 68,-34 C124,-34 124,-34 124,-34 C126,-34 128,-35 128,-37 Z" transform="matrix(0.33333, 0, 0, 0.33333, 0, 0)"/></g></defs><g><g fill="#c2c2c2" stroke="none" stroke-width="3.267" transform="matrix(0.33333, 0, 0, 0.33333, 0, 0)"><use stroke="none" transform="matrix(3, -0, -0, 3, -0, 0)" xlink:href="#mfid28"/></g></g></g></svg></switch><rect width="29.617" height="22.742" x="0" y="568.258" class="st4"/></g><g id="shape1497-14" transform="translate(173.054,-465.523)"><title>Sheet.1497</title><desc>Microsoft Entra Conditional Access policies</desc><rect width="574.875" height="62.906" x="0" y="528.094" class="st5"/><text x="11.2" y="555.7" class="st6">Microsoft Entra Conditional Access <tspan x="11.2" class="st7" dy="1.1em">policies</tspan></text></g><g id="shape1498-18" transform="translate(14.8036,-481.65)"><title>Sheet.1498</title><desc>Protection level</desc><rect width="88.142" height="30.652" x="0" y="560.348" class="st4"/><text x="0" y="572.95" class="st8">Protection <tspan x="0" class="st7" dy="1.2em">level</tspan></text></g><g id="shape1499-22" transform="translate(14.8036,-383.189)"><title>Sheet.1499</title><desc>Starting point</desc><rect width="88.142" height="30.652" x="0" y="560.348" class="st4"/><text x="0" y="579.27" class="st9">Starting point</text></g><g id="shape1500-25" transform="translate(14.8036,-88.4098)"><title>Sheet.1500</title><desc>Specialized security (only if needed for specific data sets o...</desc><rect width="88.142" height="45.669" x="0" y="545.331" class="st4"/><text x="0" y="549.45" class="st9">Specialized <tspan x="0" class="st7" dy="1.2em">security</tspan><tspan x="0" class="st10" dy="1.169em">(</tspan><tspan class="st11">only if needed for </tspan><tspan x="0" class="st11" dy="1.006em">specific data sets or </tspan><tspan x="0" class="st11" dy="1.25em">users)</tspan></text></g><g id="shape1501-33" transform="translate(109.27,-480.201)"><title>Sheet.1501</title><desc>Device type</desc><rect width="59.284" height="33.548" x="0" y="557.452" class="st4"/><text x="0" y="570.05" class="st12">Device <tspan x="0" class="st7" dy="1.2em">type</tspan></text></g><a xlink:href="https://learn.microsoft.com/microsoft-365/security/office-365-security/microsoft-365-policies-configurations"><g id="shape1502-37" transform="translate(8.80357,-534.51)"><title>Sheet.1502</title><desc>Zero Trust identity and device access policies</desc><rect width="972" height="45.669" x="0" y="545.331" class="st13"/><text x="15.52" y="574.77" class="st14">Zero Trust identity and device access policies</text></g></a><g id="shape1503-40" transform="translate(758.054,-465.429)"><title>Sheet.1503</title><desc>Intune device compliance policy</desc><rect width="103.521" height="62.906" x="0" y="528.094" class="st13"/><text x="11.2" y="549.65" class="st15">Intune device <tspan x="11.2" class="st7" dy="1.1em">compliance </tspan><tspan x="11.2" class="st7" dy="1.1em">policy</tspan></text></g><g id="shape1504-45" transform="translate(873.185,-465.429)"><title>Sheet.1504</title><desc>Intune app protection policies</desc><rect width="107.618" height="62.906" x="0" y="528.094" class="st13"/><text x="11.2" y="549.65" class="st15">Intune app <tspan x="11.2" class="st7" dy="1.1em">protection </tspan><tspan x="11.2" class="st7" dy="1.1em">policies</tspan></text></g><g id="shape1505-50" transform="translate(97.3708,-398.515)"><title>Arrow 1 - gray.1505</title><path d="M0 591 L883.43 591" class="st3"/></g><g id="shape34-53" transform="translate(119.054,-422.437)"><title>Monitor / TV.34</title><rect width="29.617" height="22.742" x="0" y="568.258" class="st4"/><switch><svg width="29.617" height="22.742" x="0" y="568.258" color-interpolation-filters="sRGB" enable-background="new" preserveAspectRatio="none" viewBox="0 -38.016 43.008 33.024"><defs><clipPath id="mfid29"><rect id="mfid30" width="43.008" height="33.024" x="0" y="-38.016"/></clipPath></defs><g clip-path="url(#mfid29)"><defs><g id="mfid31"><path d="M128,-37 C128,-110 128,-110 128,-110 C128,-112 126,-114 124,-114 C4,-114 4,-114 4,-114 C2,-114 0,-112 0,-110 C0,-37 0,-37 0,-37 C0,-35 2,-33 4,-33 C59,-33 59,-33 59,-33 C59,-22 59,-22 59,-22 C39,-22 39,-22 39,-22 C39,-14 39,-14 39,-14 C88,-14 88,-14 88,-14 C88,-22 88,-22 88,-22 C68,-22 68,-22 68,-22 C68,-34 68,-34 68,-34 C124,-34 124,-34 124,-34 C126,-34 128,-35 128,-37 Z" transform="matrix(0.33333, 0, 0, 0.33333, 0, 0)"/></g></defs><g><g fill="#c2c2c2" stroke="none" stroke-width="3.267" transform="matrix(0.33333, 0, 0, 0.33333, 0, 0)"><use stroke="none" transform="matrix(3, -0, -0, 3, -0, 0)" xlink:href="#mfid31"/></g></g></g></svg></switch><rect width="29.617" height="22.742" x="0" y="568.258" class="st4"/></g><g id="shape1506-56" transform="translate(116.84,-403.386)"><title>Sheet.1506</title><desc>PCs</desc><rect width="31.426" height="20" x="0" y="571" class="st4"/><text x="8.5" y="583.7" class="st16">PCs</text></g><g id="shape35-59" transform="translate(119.054,-364.921)"><title>Devices.35</title><rect width="29.617" height="24.791" x="0" y="566.209" class="st4"/><switch><svg width="29.617" height="24.791" x="0" y="566.209" color-interpolation-filters="sRGB" enable-background="new" preserveAspectRatio="none" viewBox="0 -39.008 43.008 36"><defs><clipPath id="mfid32"><rect id="mfid33" width="43.008" height="36" x="0" y="-39.008"/></clipPath></defs><g clip-path="url(#mfid32)"><defs><g id="mfid34"><path d="M125,-118 C87,-118 87,-118 87,-118 C85,-118 84,-117 84,-115 C84,-115 84,-115 84,-115 C84,-44 84,-44 84,-44 C84,-42 85,-41 87,-41 C87,-41 87,-41 87,-41 C125,-41 125,-41 125,-41 C127,-41 128,-42 128,-44 C128,-44 128,-44 128,-44 C128,-115 128,-115 128,-115 C128,-117 127,-118 125,-118 Z M112,-47 C101,-47 101,-47 101,-47 C101,-52 101,-52 101,-52 C112,-52 112,-52 112,-52 Z" transform="matrix(0.33333, 0, 0, 0.33333, 0, 0)"/></g></defs><g><g fill="#939393" stroke="none" stroke-width="3.267" transform="matrix(0.33333, 0, 0, 0.33333, 0, 0)"><use stroke="none" transform="matrix(3, -0, -0, 3, -0, 0)" xlink:href="#mfid34"/></g></g><defs><g id="mfid35"><path d="M76,-44 C76,-90 76,-90 76,-90 C4,-90 4,-90 4,-90 C2,-90 0,-88 0,-86 C0,-14 0,-14 0,-14 C0,-12 2,-10 4,-10 C108,-10 108,-10 108,-10 C110,-10 112,-12 112,-14 C112,-33 112,-33 112,-33 C87,-33 87,-33 87,-33 C81,-33 76,-38 76,-44 Z M64,-18 C48,-18 48,-18 48,-18 C48,-26 48,-26 48,-26 C64,-26 64,-26 64,-26 Z" transform="matrix(0.33333, 0, 0, 0.33333, 0, 0)"/></g></defs><g><g fill="#c2c2c2" stroke="none" stroke-width="3.267" transform="matrix(0.33333, 0, 0, 0.33333, 0, 0)"><use stroke="none" transform="matrix(3, -0, -0, 3, -0, 0)" xlink:href="#mfid35"/></g></g></g></svg></switch><rect width="29.617" height="24.791" x="0" y="566.209" class="st4"/></g><g id="shape1507-62" transform="translate(98.8036,-343.136)"><title>Sheet.1507</title><desc>Phones and tablets</desc><rect width="68.284" height="20" x="0" y="571" class="st4"/><text x="10.91" y="578.3" class="st16">Phones and <tspan x="20.8" class="st7" dy="1.2em">tablets</tspan></text></g><g id="shape1508-66" transform="translate(96.526,-111.246)"><title>Arrow 1 - gray.1508</title><path d="M0 591 L884.28 591" class="st3"/></g><g id="shape36-69" transform="translate(119.869,-78.4286)"><title>Devices.36</title><rect width="29.617" height="24.791" x="0" y="566.209" class="st4"/><switch><svg width="29.617" height="24.791" x="0" y="566.209" color-interpolation-filters="sRGB" enable-background="new" preserveAspectRatio="none" viewBox="0 -39.008 43.008 36"><defs><clipPath id="mfid36"><rect id="mfid37" width="43.008" height="36" x="0" y="-39.008"/></clipPath></defs><g clip-path="url(#mfid36)"><defs><g id="mfid38"><path d="M125,-118 C87,-118 87,-118 87,-118 C85,-118 84,-117 84,-115 C84,-115 84,-115 84,-115 C84,-44 84,-44 84,-44 C84,-42 85,-41 87,-41 C87,-41 87,-41 87,-41 C125,-41 125,-41 125,-41 C127,-41 128,-42 128,-44 C128,-44 128,-44 128,-44 C128,-115 128,-115 128,-115 C128,-117 127,-118 125,-118 Z M112,-47 C101,-47 101,-47 101,-47 C101,-52 101,-52 101,-52 C112,-52 112,-52 112,-52 Z" transform="matrix(0.33333, 0, 0, 0.33333, 0, 0)"/></g></defs><g><g fill="#939393" stroke="none" stroke-width="3.267" transform="matrix(0.33333, 0, 0, 0.33333, 0, 0)"><use stroke="none" transform="matrix(3, -0, -0, 3, -0, 0)" xlink:href="#mfid38"/></g></g><defs><g id="mfid39"><path d="M76,-44 C76,-90 76,-90 76,-90 C4,-90 4,-90 4,-90 C2,-90 0,-88 0,-86 C0,-14 0,-14 0,-14 C0,-12 2,-10 4,-10 C108,-10 108,-10 108,-10 C110,-10 112,-12 112,-14 C112,-33 112,-33 112,-33 C87,-33 87,-33 87,-33 C81,-33 76,-38 76,-44 Z M64,-18 C48,-18 48,-18 48,-18 C48,-26 48,-26 48,-26 C64,-26 64,-26 64,-26 Z" transform="matrix(0.33333, 0, 0, 0.33333, 0, 0)"/></g></defs><g><g fill="#c2c2c2" stroke="none" stroke-width="3.267" transform="matrix(0.33333, 0, 0, 0.33333, 0, 0)"><use stroke="none" transform="matrix(3, -0, -0, 3, -0, 0)" xlink:href="#mfid39"/></g></g></g></svg></switch><rect width="29.617" height="24.791" x="0" y="566.209" class="st4"/></g><g id="shape37-72" transform="translate(119.869,-120.409)"><title>Monitor / TV.37</title><rect width="29.617" height="22.742" x="0" y="568.258" class="st4"/><switch><svg width="29.617" height="22.742" x="0" y="568.258" color-interpolation-filters="sRGB" enable-background="new" preserveAspectRatio="none" viewBox="0 -38.016 43.008 33.024"><defs><clipPath id="mfid40"><rect id="mfid41" width="43.008" height="33.024" x="0" y="-38.016"/></clipPath></defs><g clip-path="url(#mfid40)"><defs><g id="mfid42"><path d="M128,-37 C128,-110 128,-110 128,-110 C128,-112 126,-114 124,-114 C4,-114 4,-114 4,-114 C2,-114 0,-112 0,-110 C0,-37 0,-37 0,-37 C0,-35 2,-33 4,-33 C59,-33 59,-33 59,-33 C59,-22 59,-22 59,-22 C39,-22 39,-22 39,-22 C39,-14 39,-14 39,-14 C88,-14 88,-14 88,-14 C88,-22 88,-22 88,-22 C68,-22 68,-22 68,-22 C68,-34 68,-34 68,-34 C124,-34 124,-34 124,-34 C126,-34 128,-35 128,-37 Z" transform="matrix(0.33333, 0, 0, 0.33333, 0, 0)"/></g></defs><g><g fill="#c2c2c2" stroke="none" stroke-width="3.267" transform="matrix(0.33333, 0, 0, 0.33333, 0, 0)"><use stroke="none" transform="matrix(3, -0, -0, 3, -0, 0)" xlink:href="#mfid42"/></g></g></g></svg></switch><rect width="29.617" height="22.742" x="0" y="568.258" class="st4"/></g><a xlink:href="https://learn.microsoft.com/microsoft-365/security/office-365-security/identity-access-policies#device-compliance-policies"><g id="shape1509-75" transform="translate(758.054,-64.9286)"><title>Sheet.1509</title><desc>Define compliance policies (one for each platform)</desc><rect width="103.521" height="228.759" x="0" y="362.241" class="st17"/><text x="8" y="377.67" class="st16">Define compliance <tspan x="8" class="st7" dy="1.1em">policies (one for </tspan><tspan x="8" class="st7" dy="1.1em">each platform)</tspan></text></g></a><a xlink:href="https://learn.microsoft.com/microsoft-365/enterprise/identity-access-policies#high-risk-users-must-change-password"><g id="shape1510-80" transform="translate(637.04,-64.9286)"><title>Sheet.1510</title><desc>High risk users must change password This policy forces users...</desc><rect width="111.595" height="391.5" x="0" y="199.5" class="st17"/><text x="8" y="214.93" class="st16">High risk users must <tspan x="8" class="st7" dy="1.1em">change password</tspan><tspan x="8" class="st7" dy="2.2em">This policy forces users </tspan><tspan x="8" class="st7" dy="1.1em">to change their </tspan><tspan x="8" class="st7" dy="1.1em">password when signing </tspan><tspan x="8" class="st7" dy="1.1em">in if high risk activity is </tspan><tspan x="8" class="st7" dy="1.1em">detected for their </tspan><tspan x="8" class="st7" dy="1.1em">account.</tspan></text></g></a><g id="shape1511-90" transform="translate(1515.95,262.571) rotate(90)"><title>Sheet.1511</title><path d="M0 591 L83 591" class="st18"/></g><a xlink:href="https://learn.microsoft.com/microsoft-365/security/office-365-security/identity-access-policies#app-protection-policies"><g id="shape1512-93" transform="translate(873.185,-206.679)"><title>Sheet.1512</title><desc>Apply Level 2 APP data protection</desc><rect width="103.521" height="36" x="0" y="555" class="st17"/><text x="8" y="570.43" class="st16">Apply Level 2 APP <tspan x="8" class="st7" dy="1.1em">data protection</tspan></text></g></a><a xlink:href="https://learn.microsoft.com/microsoft-365/security/office-365-security/identity-access-policies#app-protection-policies"><g id="shape1513-97" transform="translate(873.185,-64.9286)"><title>Sheet.1513</title><desc>Apply Level 3 APP data protection</desc><rect width="103.521" height="40.081" x="0" y="550.919" class="st17"/><text x="8" y="566.34" class="st16">Apply Level 3 APP <tspan x="8" class="st7" dy="1.1em">data protection</tspan></text></g></a><a xlink:href="https://learn.microsoft.com/microsoft-365/security/office-365-security/identity-access-policies#app-protection-policies"><g id="shape1514-101" transform="translate(873.185,-328.429)"><title>Sheet.1514</title><desc>Apply Level 2 App Protection Policies (APP) data protection (...</desc><rect width="103.521" height="65" x="0" y="526" class="st17"/><text x="8" y="541.43" class="st16">Apply Level 2 App <tspan x="8" class="st7" dy="1.1em">Protection Policies </tspan><tspan x="8" class="st7" dy="1.1em">(APP) data protection </tspan><tspan x="8" class="st7" dy="1.1em">(one for each </tspan><tspan x="8" class="st7" dy="1.1em">platform)</tspan></text></g></a><a xlink:href="https://learn.microsoft.com/microsoft-365/enterprise/identity-access-policies#require-compliant-pcs-and-mobile-devices"><g id="shape1515-108" transform="translate(518.848,-64.9286)"><title>Sheet.1515</title><desc>Require compliant PCs and mobile devices This policy enforces...</desc><rect width="103.521" height="230.928" x="0" y="360.072" class="st19"/><text x="8" y="375.5" class="st16">Require compliant <tspan x="8" class="st7" dy="1.1em">PCs</tspan><tspan class="st20"> </tspan><tspan class="st20">and </tspan>mobile <tspan x="8" class="st7" dy="1.1em">devices</tspan><tspan x="8" class="st7" dy="2.2em">This policy enforces </tspan><tspan x="8" class="st7" dy="1.1em">Intune management </tspan><tspan x="8" class="st7" dy="1.1em">for PCs, phones, and </tspan><tspan x="8" class="st7" dy="1.1em">tablets.</tspan></text></g></a><a xlink:href="https://learn.microsoft.com/azure/active-directory/conditional-access/howto-conditional-access-policy-block-legacy"><g id="shape1516-119" transform="translate(406.012,-64.9286)"><title>Sheet.1516</title><desc>Block clients that don’t support modern authentication Client...</desc><rect width="103.521" height="391.5" x="0" y="199.5" class="st19"/><text x="8" y="214.93" class="st16">Block clients that <tspan x="8" class="st7" dy="1.1em">don</tspan>’t support <tspan x="8" class="st7" dy="1.1em">modern </tspan><tspan x="8" class="st7" dy="1.1em">authentication </tspan><tspan x="8" class="st7" dy="2.644em">Clients that do not </tspan><tspan x="8" class="st7" dy="1.1em">use modern </tspan><tspan x="8" class="st7" dy="1.1em">authentication can </tspan><tspan x="8" class="st7" dy="1.1em">bypass Conditional </tspan><tspan x="8" class="st7" dy="1.1em">Access policies.</tspan></text></g></a><g id="shape1517-130" transform="translate(935.647,266.196) rotate(90)"><title>Sheet.1517</title><path d="M0 591 L225 591" class="st21"/></g><a xlink:href="https://learn.microsoft.com/microsoft-365/security/office-365-security/identity-access-policies#app-protection-policies"><g id="shape1518-133" transform="translate(292.886,-206.679)"><title>Sheet.1518</title><desc>Require approved apps</desc><rect width="103.521" height="36" x="0" y="555" class="st17"/><text x="8" y="570.43" class="st16">Require <tspan x="8" class="st7" dy="1.1em">approved apps</tspan></text></g></a><a xlink:href="https://learn.microsoft.com/microsoft-365/security/office-365-security/identity-access-policies#app-protection-policies"><g id="shape1519-137" transform="translate(292.886,-325.929)"><title>Sheet.1519</title><desc>Require approved apps This policy enforces mobile app protect...</desc><rect width="103.521" height="67.5" x="0" y="523.5" class="st17"/><text x="7" y="538.93" class="st16">Require approved <tspan x="7" class="st7" dy="1.1em">apps</tspan><tspan x="7" class="st7" dy="1.544em">This policy enforces </tspan><tspan x="7" class="st7" dy="1.1em">mobile app protection </tspan><tspan x="7" class="st7" dy="1.1em">for phones &amp; tablets.</tspan></text></g></a><a xlink:href="https://docs.microsoft.com/microsoft-365/enterprise/identity-access-policies?view=o365-worldwide#require-mfa-based-on-sign-in-risk"><g id="shape1520-144" transform="translate(179.559,-208.929)"><title>Sheet.1520</title><desc>Require MFA when sign-in risk is low, medium, or high</desc><rect width="104.035" height="84.793" x="0" y="506.207" class="st19"/><text x="8" y="521.63" class="st16">Require MFA when <tspan x="8" class="st7" dy="1.1em">sign</tspan>-in risk is low, <tspan x="8" class="st7" dy="1.1em">medium, or high</tspan></text></g></a><a xlink:href="https://docs.microsoft.com/microsoft-365/enterprise/identity-access-policies#require-mfa-based-on-sign-in-risk"><g id="shape1521-149" transform="translate(179.559,-325.929)"><title>Sheet.1521</title><desc>Require multi-factor authentication (MFA) when sign-in risk i...</desc><rect width="104.035" height="130.5" x="0" y="460.5" class="st19"/><text x="8" y="475.93" class="st16">Require multi-factor <tspan x="8" class="st7" dy="1.1em">authentication (MFA) </tspan><tspan x="8" class="st7" dy="1.1em">when sign</tspan>-in risk is <tspan x="8" class="st20" dy="1.1em">medium</tspan> or <tspan class="st20">high</tspan></text></g></a><a xlink:href="https://learn.microsoft.com/microsoft-365/enterprise/identity-access-policies#require-mfa-based-on-sign-in-risk"><g id="shape1522-156" transform="translate(179.559,-64.9286)"><title>Sheet.1522</title><desc>Require MFA always This is also available for all Office 365 ...</desc><rect width="104.035" height="90.871" x="0" y="500.129" class="st19"/><text x="8" y="515.55" class="st16">Require MFA <tspan class="st20">always</tspan><tspan x="8" class="st7" dy="2.2em">This is also available </tspan><tspan x="8" class="st7" dy="1.1em">for all Office 365 </tspan><tspan x="8" class="st7" dy="1.1em">Enterprise plans.</tspan></text></g></a><g id="shape1523-163" transform="translate(267.817,-332.665)"><title>Sheet.1523</title><ellipse cx="4.477" cy="586.514" class="st22" rx="4.477" ry="4.486"/></g><g id="shape1524-165" transform="translate(267.817,-215.72)"><title>Sheet.1524</title><ellipse cx="4.477" cy="586.514" class="st22" rx="4.477" ry="4.486"/></g><g id="shape1525-167" transform="translate(732.815,-71.6925)"><title>Sheet.1525</title><ellipse cx="4.477" cy="586.514" class="st22" rx="4.477" ry="4.486"/></g><g id="shape1526-169" transform="translate(14.8036,-221.76)"><title>Sheet.1526</title><desc>Enterprise (Recommended for Zero Trust)</desc><rect width="88.142" height="45.669" x="0" y="545.331" class="st4"/><text x="0" y="561.15" class="st9">Enterprise<tspan x="0" class="st10" dy="1.169em">(</tspan><tspan class="st11">Recommended for </tspan><tspan x="0" class="st11" dy="1.256em">Zero Trust)</tspan></text></g><g id="shape1527-175" transform="translate(256.706,-25.3114)"><title>Sheet.1527</title><desc>March 2024</desc><rect width="720" height="16.313" x="0" y="574.688" class="st4"/><text x="653.45" y="589.49" class="st23">March 2024</text></g><g id="shape1528-178" transform="translate(14.8036,-29.5)"><title>Sheet.1528</title><desc>PCs include devices running the Windows or macOS platforms</desc><rect width="290.213" height="20" x="0" y="571" class="st4"/><text x="4" y="583.7" class="st24">PCs<tspan class="st25"> </tspan><tspan class="st25">include devices running the Windows or macOS platforms</tspan></text></g><g id="shape1529-183" transform="translate(14.8036,-14)"><title>Sheet.1529</title><desc>Phones and tablets include devices running the iOS, iPadOS, o...</desc><rect width="389.213" height="20" x="0" y="571" class="st4"/><text x="4" y="583.7" class="st24">Phones and tablets<tspan class="st25"> </tspan><tspan class="st25">include devices running the iOS, iPadOS, or Android platforms</tspan></text></g><g id="shape1530-188" transform="translate(514.375,-39.0764)"><title>Sheet.1530</title><ellipse cx="4.463" cy="586.527" class="st22" rx="4.463" ry="4.473"/></g><g id="shape1531-190" transform="translate(532.32,-3.07639)"><title>Sheet.1531</title><desc>Requires Microsoft 365 E5, Microsoft 365 E3 with the E5 Ident...</desc><rect width="234" height="45" x="0" y="546" class="st4"/><text x="0" y="554.1" class="st16">Requires Microsoft 365 E5, Microsoft 365 E3 with the E5 <tspan x="0" class="st7" dy="1.2em">Identity add</tspan>-on, Office 365 with EMS E5, or individual</text></g><a xlink:href="https://learn.microsoft.com/microsoft-365/enterprise/identity-access-policies#app-protection-policies"><g id="shape1532-194" transform="translate(292.886,-64.9286)"><title>Sheet.1532</title><desc>Require approved apps</desc><rect width="103.521" height="40.081" x="0" y="550.919" class="st19"/><text x="8" y="566.34" class="st16">Require <tspan x="8" class="st7" dy="1.1em">approved apps</tspan></text></g></a><g id="shape1533-198" transform="translate(9.12494,-195.75)"><title>Sheet.1533</title><rect width="972" height="108" x="0" y="483" class="st26" rx="9" ry="9"/></g></g></svg>